<?xml version="1.0" encoding="UTF-8" standalone="no"?>
<!-- Created with Inkscape (http://www.inkscape.org/) -->

<svg
   width="129.74059mm"
   height="129.60645mm"
   viewBox="0 0 129.74058 129.60645"
   version="1.1"
   id="svg6682"
   inkscape:version="1.1.2 (0a00cf5339, 2022-02-04)"
   sodipodi:docname="videomiam.svg"
   xmlns:inkscape="http://www.inkscape.org/namespaces/inkscape"
   xmlns:sodipodi="http://sodipodi.sourceforge.net/DTD/sodipodi-0.dtd"
   xmlns="http://www.w3.org/2000/svg"
   xmlns:svg="http://www.w3.org/2000/svg">
  <sodipodi:namedview
     id="namedview6684"
     pagecolor="#ffffff"
     bordercolor="#666666"
     borderopacity="1.0"
     inkscape:pageshadow="2"
     inkscape:pageopacity="0.0"
     inkscape:pagecheckerboard="0"
     inkscape:document-units="mm"
     showgrid="false"
     inkscape:snap-global="false"
     inkscape:zoom="2.0359279"
     inkscape:cx="281.93533"
     inkscape:cy="231.34415"
     inkscape:window-width="1680"
     inkscape:window-height="999"
     inkscape:window-x="0"
     inkscape:window-y="0"
     inkscape:window-maximized="1"
     inkscape:current-layer="layer1"
     fit-margin-top="0"
     fit-margin-left="3.5"
     fit-margin-right="0"
     fit-margin-bottom="0" />
  <defs
     id="defs6679">
    <inkscape:path-effect
       effect="bspline"
       id="path-effect112151"
       is_visible="true"
       lpeversion="1"
       weight="33.333333"
       steps="2"
       helper_size="0"
       apply_no_weight="true"
       apply_with_weight="true"
       only_selected="false" />
    <inkscape:path-effect
       effect="bspline"
       id="path-effect112147"
       is_visible="true"
       lpeversion="1"
       weight="33.333333"
       steps="2"
       helper_size="0"
       apply_no_weight="true"
       apply_with_weight="true"
       only_selected="false" />
    <inkscape:path-effect
       effect="bspline"
       id="path-effect112143"
       is_visible="true"
       lpeversion="1"
       weight="33.333333"
       steps="2"
       helper_size="0"
       apply_no_weight="true"
       apply_with_weight="true"
       only_selected="false" />
    <inkscape:path-effect
       effect="bspline"
       id="path-effect112139"
       is_visible="true"
       lpeversion="1"
       weight="33.333333"
       steps="2"
       helper_size="0"
       apply_no_weight="true"
       apply_with_weight="true"
       only_selected="false" />
    <inkscape:path-effect
       effect="bspline"
       id="path-effect112135"
       is_visible="true"
       lpeversion="1"
       weight="33.333333"
       steps="2"
       helper_size="0"
       apply_no_weight="true"
       apply_with_weight="true"
       only_selected="false" />
    <inkscape:path-effect
       effect="bspline"
       id="path-effect112119"
       is_visible="true"
       lpeversion="1"
       weight="33.333333"
       steps="2"
       helper_size="0"
       apply_no_weight="true"
       apply_with_weight="true"
       only_selected="false" />
    <inkscape:path-effect
       effect="bspline"
       id="path-effect112115"
       is_visible="true"
       lpeversion="1"
       weight="33.333333"
       steps="2"
       helper_size="0"
       apply_no_weight="true"
       apply_with_weight="true"
       only_selected="false" />
    <inkscape:path-effect
       effect="bspline"
       id="path-effect112111"
       is_visible="true"
       lpeversion="1"
       weight="33.333333"
       steps="2"
       helper_size="0"
       apply_no_weight="true"
       apply_with_weight="true"
       only_selected="false" />
    <inkscape:path-effect
       effect="bspline"
       id="path-effect112107"
       is_visible="true"
       lpeversion="1"
       weight="33.333333"
       steps="2"
       helper_size="0"
       apply_no_weight="true"
       apply_with_weight="true"
       only_selected="false" />
    <inkscape:path-effect
       effect="bspline"
       id="path-effect112103"
       is_visible="true"
       lpeversion="1"
       weight="33.333333"
       steps="2"
       helper_size="0"
       apply_no_weight="true"
       apply_with_weight="true"
       only_selected="false" />
    <inkscape:path-effect
       effect="bspline"
       id="path-effect111873"
       is_visible="true"
       lpeversion="1"
       weight="33.333333"
       steps="2"
       helper_size="0"
       apply_no_weight="true"
       apply_with_weight="true"
       only_selected="false" />
    <inkscape:path-effect
       effect="bspline"
       id="path-effect111630"
       is_visible="true"
       lpeversion="1"
       weight="33.333333"
       steps="2"
       helper_size="0"
       apply_no_weight="true"
       apply_with_weight="true"
       only_selected="false" />
    <inkscape:path-effect
       effect="bspline"
       id="path-effect109694"
       is_visible="true"
       lpeversion="1"
       weight="33.333333"
       steps="2"
       helper_size="0"
       apply_no_weight="true"
       apply_with_weight="true"
       only_selected="false" />
    <inkscape:path-effect
       effect="bspline"
       id="path-effect107781"
       is_visible="true"
       lpeversion="1"
       weight="33.333333"
       steps="2"
       helper_size="0"
       apply_no_weight="true"
       apply_with_weight="true"
       only_selected="false" />
    <inkscape:path-effect
       effect="bspline"
       id="path-effect105320"
       is_visible="true"
       lpeversion="1"
       weight="33.333333"
       steps="2"
       helper_size="0"
       apply_no_weight="true"
       apply_with_weight="true"
       only_selected="false" />
    <inkscape:path-effect
       effect="bspline"
       id="path-effect86734"
       is_visible="true"
       lpeversion="1"
       weight="33.333333"
       steps="2"
       helper_size="0"
       apply_no_weight="true"
       apply_with_weight="true"
       only_selected="false" />
    <inkscape:path-effect
       effect="bspline"
       id="path-effect86728"
       is_visible="true"
       lpeversion="1"
       weight="33.333333"
       steps="2"
       helper_size="0"
       apply_no_weight="true"
       apply_with_weight="true"
       only_selected="false" />
    <inkscape:path-effect
       effect="powerstroke"
       id="path-effect80822"
       is_visible="true"
       lpeversion="1"
       offset_points="0.2,0.83249998 | 31,0.83249998 | 61.8,0.83249998"
       not_jump="false"
       sort_points="true"
       interpolator_type="CubicBezierFit"
       interpolator_beta="0.33707865"
       start_linecap_type="zerowidth"
       linejoin_type="round"
       miter_limit="4"
       scale_width="1"
       end_linecap_type="zerowidth" />
    <inkscape:path-effect
       effect="bspline"
       id="path-effect79446"
       is_visible="true"
       lpeversion="1"
       weight="33.333333"
       steps="2"
       helper_size="0"
       apply_no_weight="true"
       apply_with_weight="true"
       only_selected="false" />
    <inkscape:path-effect
       effect="bspline"
       id="path-effect77463"
       is_visible="true"
       lpeversion="1"
       weight="33.333333"
       steps="2"
       helper_size="0"
       apply_no_weight="true"
       apply_with_weight="true"
       only_selected="false" />
    <inkscape:path-effect
       effect="bspline"
       id="path-effect71633"
       is_visible="true"
       lpeversion="1"
       weight="33.333333"
       steps="2"
       helper_size="0"
       apply_no_weight="true"
       apply_with_weight="true"
       only_selected="false" />
  </defs>
  <g
     inkscape:label="Layer 1"
     inkscape:groupmode="layer"
     id="layer1"
     transform="translate(-58.875273,-102.04231)">
    <path
       style="fill:#3b3b3b;fill-opacity:1;stroke:#bd8fa9;stroke-width:1.98;stroke-linecap:round;stroke-linejoin:round;stroke-miterlimit:4;stroke-dasharray:none;stroke-opacity:1;stop-color:#000000"
       id="path7937"
       sodipodi:type="arc"
       sodipodi:cx="124.10532"
       sodipodi:cy="158.85849"
       sodipodi:rx="55.826153"
       sodipodi:ry="55.826153"
       sodipodi:start="0"
       sodipodi:end="6.2745808"
       sodipodi:open="true"
       sodipodi:arc-type="arc"
       d="m 179.93148,158.85849 a 55.826153,55.826153 0 0 1 -55.70607,55.82602 55.826153,55.826153 0 0 1 -55.945722,-55.58584 55.826153,55.826153 0 0 1 55.465372,-56.06517 55.826153,55.826153 0 0 1 56.18435,55.34464" />
    <path
       style="fill:#000000;fill-opacity:1;stroke:#bd8fa9;stroke-width:3.68;stroke-linecap:round;stroke-linejoin:round;stroke-miterlimit:4;stroke-dasharray:none;stroke-opacity:1;stop-color:#000000"
       id="path15171"
       sodipodi:type="arc"
       sodipodi:cx="124.10532"
       sodipodi:cy="158.85849"
       sodipodi:rx="48.943699"
       sodipodi:ry="48.943699"
       sodipodi:start="0"
       sodipodi:end="6.2745808"
       sodipodi:open="true"
       sodipodi:arc-type="arc"
       d="m 173.04902,158.85849 a 48.943699,48.943699 0 0 1 -48.83841,48.94359 48.943699,48.943699 0 0 1 -49.048532,-48.73302 48.943699,48.943699 0 0 1 48.627392,-49.15325 48.943699,48.943699 0 0 1 49.25774,48.52155" />
    <path
       sodipodi:type="star"
       style="fill:none;fill-opacity:1;stroke:#ffffff;stroke-width:4.45984;stroke-linecap:square;stroke-linejoin:round;stroke-miterlimit:4;stroke-dasharray:none;stroke-opacity:1;stop-color:#000000"
       id="path63570"
       inkscape:flatsided="false"
       sodipodi:sides="14"
       sodipodi:cx="503.65012"
       sodipodi:cy="1093.871"
       sodipodi:r1="260.3454"
       sodipodi:r2="236.65398"
       sodipodi:arg1="0.66596353"
       sodipodi:arg2="0.89036301"
       inkscape:rounded="0.95"
       inkscape:randomized="0"
       d="m 708.36539,1254.7168 c -35.46295,45.1352 -11.21184,-13.007 -55.82918,23.1053 -44.61735,36.1124 17.30205,24.51 -34.23239,49.7886 -51.53444,25.2786 -4.45801,-16.5835 -60.32539,-3.4062 -55.86739,13.1773 4.95414,29.5898 -52.44476,30.0051 -57.3989,0.4152 3.17879,-16.8755 -52.87342,-29.2431 -56.0522,-12.3676 -8.37498,28.809 -60.26979,4.2787 -51.89481,-24.5303 10.18598,-13.8251 -34.94921,-49.288 -45.13519,-35.463 -20.04535,22.3222 -56.15766,-22.2952 -36.11231,-44.6173 15.17572,-8.0364 -10.10288,-59.5708 -25.27861,-51.5344 -27.74549,11.4143 -40.92282,-44.4531 -13.17732,-55.8674 17.15973,-0.6561 16.74444,-58.055 -0.41528,-57.3989 -29.95028,-1.7544 -17.5827,-57.8066 12.36759,-56.05218 15.74503,6.8543 40.27533,-45.04056 24.53029,-51.89481 -26.22307,-14.57561 9.23988,-59.7108 35.46295,-45.13519 11.21184,13.00696 55.82918,-23.10535 44.61735,-36.11231 -17.30205,-24.50993 34.23239,-49.78853 51.53444,-25.27861 4.45801,16.5835 60.3254,3.40617 55.86738,-13.17733 -4.95415,-29.58976 52.44475,-30.00504 57.3989,-0.41528 -3.17878,16.87548 52.87342,29.24306 56.0522,12.36759 8.37498,-28.80898 60.26979,-4.27868 51.89481,24.53029 -10.18598,13.82506 34.94921,49.28801 45.13519,35.46295 20.04535,-22.32223 56.15766,22.29512 36.11231,44.61734 -15.17572,8.03641 10.10289,59.57085 25.2786,51.53445 27.74548,-11.41428 40.92281,44.45315 13.17733,55.8673 -17.15972,0.656 -16.74444,58.0549 0.41528,57.3989 29.95029,1.7544 17.5827,57.8066 -12.36759,56.0522 -15.74503,-6.8542 -40.27532,45.0406 -24.5303,51.8948 26.22306,14.5756 -9.23989,59.7108 z"
       transform="matrix(0.18841037,0,0,0.18841037,29.262461,-47.440463)"
       inkscape:transform-center-x="7.361991e-06"
       inkscape:transform-center-y="-1.6778577e-05" />
    <path
       style="fill:#d2741b;fill-opacity:1;stroke:#000000;stroke-width:0.28;stroke-linecap:round;stroke-linejoin:round;stroke-miterlimit:4;stroke-dasharray:none;stroke-opacity:1;stop-color:#000000"
       id="path61460"
       sodipodi:type="arc"
       sodipodi:cx="124.10532"
       sodipodi:cy="158.85849"
       sodipodi:rx="46.543819"
       sodipodi:ry="46.543819"
       sodipodi:start="0"
       sodipodi:end="6.2745808"
       sodipodi:open="true"
       sodipodi:arc-type="arc"
       d="m 170.64914,158.85849 a 46.543819,46.543819 0 0 1 -46.44369,46.54371 46.543819,46.543819 0 0 1 -46.643515,-46.34347 46.543819,46.543819 0 0 1 46.243025,-46.74309 46.543819,46.543819 0 0 1 46.84246,46.14237" />
    <g
       id="g70331"
       transform="translate(27.540821,69.90291)">
      <path
         sodipodi:type="star"
         style="fill:#f7e2dc;fill-opacity:1;stroke:#000000;stroke-width:4.0252;stroke-linecap:square;stroke-linejoin:round;stroke-miterlimit:4;stroke-dasharray:none;stroke-opacity:1;stop-color:#000000"
         id="path66054"
         inkscape:flatsided="false"
         sodipodi:sides="12"
         sodipodi:cx="-369.54327"
         sodipodi:cy="-118.96218"
         sodipodi:r1="37.517254"
         sodipodi:r2="31.476976"
         sodipodi:arg1="1.0471976"
         sodipodi:arg2="1.308997"
         inkscape:rounded="0.43"
         inkscape:randomized="0"
         d="m -350.78465,-86.471285 c -4.02739,2.325216 -6.11981,-3.290092 -10.61178,-2.086471 -4.49198,1.20362 -3.49641,7.112829 -8.14685,7.112829 -4.65043,0 -3.65486,-5.909209 -8.14684,-7.11283 -4.49197,-1.203621 -6.58439,4.411687 -10.61178,2.08647 -4.0274,-2.325217 -0.21061,-6.944959 -3.49896,-10.233312 -3.28835,-3.288353 -7.90809,0.528436 -10.23331,-3.498961 -2.32522,-4.02739 3.29009,-6.11981 2.08647,-10.61178 -1.20362,-4.49198 -7.11283,-3.49641 -7.11283,-8.14684 0,-4.65044 5.90921,-3.65487 7.11283,-8.14684 1.20362,-4.49198 -4.41168,-6.5844 -2.08647,-10.61179 2.32522,-4.02739 6.94496,-0.2106 10.23331,-3.49896 3.28836,-3.28835 -0.52843,-7.90809 3.49896,-10.23331 4.02739,-2.32521 6.11981,3.29009 10.61179,2.08647 4.49197,-1.20362 3.49641,-7.11283 8.14684,-7.11282 4.65043,0 3.65487,5.9092 8.14684,7.11282 4.49197,1.20363 6.58439,-4.41168 10.61178,-2.08647 4.0274,2.32522 0.21061,6.94496 3.49896,10.23332 3.28835,3.28835 7.9081,-0.52844 10.23331,3.49895 2.32522,4.0274 -3.29009,6.11982 -2.08647,10.61179 1.20362,4.49197 7.11283,3.49641 7.11283,8.14684 0,4.65043 -5.90921,3.65487 -7.11283,8.14684 -1.20362,4.49197 4.41169,6.58439 2.08647,10.61179 -2.32522,4.02739 -6.94496,0.210601 -10.23331,3.498954 -3.28835,3.288352 0.52843,7.908095 -3.49896,10.233311 z"
         transform="matrix(0.26458333,0,0,0.26458333,175.87113,94.28917)"
         inkscape:transform-center-x="-1.2318109e-06" />
      <path
         style="color:#000000;fill:#e2667b;fill-rule:evenodd;stroke-linecap:round;-inkscape-stroke:none"
         d="m -369.02734,-138.22852 c -2.93098,0.25686 -5.84922,1.12117 -8.58399,2.66993 -9.29147,5.26194 -13.40556,17.44052 -7.81054,26.95312 4.62604,7.86518 15.12254,11.328475 23.20507,6.31836 6.43704,-3.99012 9.25326,-12.82354 4.80078,-19.46875 -3.35471,-5.00683 -10.56798,-7.18191 -15.75781,-3.23047 -1.78882,1.36198 -3.00767,3.35929 -3.41797,5.55664 -0.41029,2.19736 0.0923,4.71195 1.89063,6.54688 1.0801,1.10208 2.49637,1.74507 4.0957,1.84961 1.59934,0.10453 4.37527,-0.5181 4.4961,-2.55664 0.24292,-4.09836 -3.71498,-1.00437 -5.7168,-2.10938 -0.81869,-0.83535 -1.02574,-1.82925 -0.8086,-2.99219 0.21715,-1.16293 0.96261,-2.37778 1.9004,-3.09179 3.13955,-2.3904 7.8035,-0.97274 9.9746,2.26757 3.0739,4.58772 1.04345,10.94383 -3.57812,13.8086 -6.02457,3.73444 -14.07784,1.07479 -17.61523,-4.93945 -4.38508,-7.45547 -1.08798,-17.21138 6.32617,-21.41016 8.88296,-5.0306 20.34582,-1.09221 25.19922,7.72656 1.44546,2.62645 2.29107,5.58627 2.47265,8.58789 0.0665,1.10937 -0.42979,5.38825 0.67959,5.32203 1.37348,-5.40125 1.87597,-12.67873 -1.50076,-17.49491 -4.42331,-8.03729 -11.45817,-11.084 -20.25109,-10.31345 z"
         id="path68328"
         transform="matrix(0.26458333,0,0,0.26458333,175.65149,94.179798)"
         sodipodi:nodetypes="sssssssssscssssssscccs" />
    </g>
    <path
       style="fill:#183f1f;fill-opacity:1;stroke:#000000;stroke-width:1.465;stroke-linecap:butt;stroke-linejoin:miter;stroke-miterlimit:4;stroke-dasharray:none;stroke-opacity:1"
       d="m 158.56736,135.59847 14.9142,-14.57308 c 0,0 1.39482,3.15246 3.14719,5.44416 1.75238,2.2917 4.60266,7.04329 4.60266,7.04329 l 6.40278,15.06515 -20.26034,15.62128 -0.63231,-8.41311"
       id="path94884"
       sodipodi:nodetypes="ccscccc" />
    <g
       id="g105283"
       transform="translate(4.959672,-0.99523013)">
      <path
         style="fill:#a1dc31;fill-opacity:1;stroke:#000000;stroke-width:0.491;stroke-linecap:round;stroke-linejoin:round;stroke-miterlimit:4;stroke-dasharray:none;stroke-opacity:1;stop-color:#000000"
         id="path102767"
         sodipodi:type="arc"
         sodipodi:cx="149.87704"
         sodipodi:cy="101.92857"
         sodipodi:rx="2.1318381"
         sodipodi:ry="1.341285"
         sodipodi:start="0"
         sodipodi:end="6.2745808"
         sodipodi:open="true"
         sodipodi:arc-type="arc"
         d="m 152.00888,101.92857 a 2.1318381,1.341285 0 0 1 -2.12725,1.34129 2.1318381,1.341285 0 0 1 -2.1364,-1.33552 2.1318381,1.341285 0 0 1 2.11806,-1.34702 2.1318381,1.341285 0 0 1 2.14551,1.32971"
         transform="rotate(10.526089)" />
      <path
         style="fill:#a1dc31;fill-opacity:1;stroke:#000000;stroke-width:0.491;stroke-linecap:round;stroke-linejoin:round;stroke-miterlimit:4;stroke-dasharray:none;stroke-opacity:1;stop-color:#000000"
         id="path105261"
         sodipodi:type="arc"
         sodipodi:cx="83.286224"
         sodipodi:cy="160.84602"
         sodipodi:rx="2.1318381"
         sodipodi:ry="1.341285"
         sodipodi:start="0"
         sodipodi:end="6.2745808"
         sodipodi:open="true"
         sodipodi:arc-type="arc"
         d="m 85.418062,160.84602 a 2.1318381,1.341285 0 0 1 -2.127252,1.34129 2.1318381,1.341285 0 0 1 -2.136404,-1.33552 2.1318381,1.341285 0 0 1 2.118061,-1.34702 2.1318381,1.341285 0 0 1 2.145517,1.32971"
         transform="rotate(-20.790077)" />
      <path
         style="fill:#a1dc31;fill-opacity:1;stroke:#000000;stroke-width:0.491;stroke-linecap:round;stroke-linejoin:round;stroke-miterlimit:4;stroke-dasharray:none;stroke-opacity:1;stop-color:#000000"
         id="path105263"
         sodipodi:type="arc"
         sodipodi:cx="189.9455"
         sodipodi:cy="-5.4644766"
         sodipodi:rx="2.1318381"
         sodipodi:ry="1.341285"
         sodipodi:start="0"
         sodipodi:end="6.2745808"
         sodipodi:open="true"
         sodipodi:arc-type="arc"
         d="m 192.07733,-5.4644766 a 2.1318381,1.341285 0 0 1 -2.12725,1.3412819 2.1318381,1.341285 0 0 1 -2.1364,-1.3355114 2.1318381,1.341285 0 0 1 2.11806,-1.3470275 2.1318381,1.341285 0 0 1 2.14551,1.3297161"
         transform="rotate(44.767708)" />
      <path
         style="fill:#a1dc31;fill-opacity:1;stroke:#000000;stroke-width:0.491;stroke-linecap:round;stroke-linejoin:round;stroke-miterlimit:4;stroke-dasharray:none;stroke-opacity:1;stop-color:#000000"
         id="path105265"
         sodipodi:type="arc"
         sodipodi:cx="162.11143"
         sodipodi:cy="71.112556"
         sodipodi:rx="2.1318381"
         sodipodi:ry="1.341285"
         sodipodi:start="0"
         sodipodi:end="6.2745808"
         sodipodi:open="true"
         sodipodi:arc-type="arc"
         d="m 164.24327,71.112556 a 2.1318381,1.341285 0 0 1 -2.12725,1.341282 2.1318381,1.341285 0 0 1 -2.1364,-1.335511 2.1318381,1.341285 0 0 1 2.11806,-1.347028 2.1318381,1.341285 0 0 1 2.14551,1.329717"
         transform="rotate(20.361566)" />
      <path
         style="fill:#a1dc31;fill-opacity:1;stroke:#000000;stroke-width:0.491;stroke-linecap:round;stroke-linejoin:round;stroke-miterlimit:4;stroke-dasharray:none;stroke-opacity:1;stop-color:#000000"
         id="path105267"
         sodipodi:type="arc"
         sodipodi:cx="125.76947"
         sodipodi:cy="131.54611"
         sodipodi:rx="2.1318381"
         sodipodi:ry="1.341285"
         sodipodi:start="0"
         sodipodi:end="6.2745808"
         sodipodi:open="true"
         sodipodi:arc-type="arc"
         d="m 127.90131,131.54611 a 2.1318381,1.341285 0 0 1 -2.12725,1.34128 2.1318381,1.341285 0 0 1 -2.13641,-1.33551 2.1318381,1.341285 0 0 1 2.11806,-1.34703 2.1318381,1.341285 0 0 1 2.14552,1.32972" />
      <path
         style="fill:#a1dc31;fill-opacity:1;stroke:#000000;stroke-width:0.491;stroke-linecap:round;stroke-linejoin:round;stroke-miterlimit:4;stroke-dasharray:none;stroke-opacity:1;stop-color:#000000"
         id="path105269"
         sodipodi:type="arc"
         sodipodi:cx="135.6015"
         sodipodi:cy="-132.05237"
         sodipodi:rx="2.1318381"
         sodipodi:ry="1.341285"
         sodipodi:start="0"
         sodipodi:end="6.2745808"
         sodipodi:open="true"
         sodipodi:arc-type="arc"
         d="m 137.73334,-132.05237 a 2.1318381,1.341285 0 0 1 -2.12725,1.34128 2.1318381,1.341285 0 0 1 -2.13641,-1.33551 2.1318381,1.341285 0 0 1 2.11806,-1.34703 2.1318381,1.341285 0 0 1 2.14552,1.32972"
         transform="rotate(88.723887)" />
      <path
         style="fill:#a1dc31;fill-opacity:1;stroke:#000000;stroke-width:0.491;stroke-linecap:round;stroke-linejoin:round;stroke-miterlimit:4;stroke-dasharray:none;stroke-opacity:1;stop-color:#000000"
         id="path105271"
         sodipodi:type="arc"
         sodipodi:cx="50.39175"
         sodipodi:cy="177.48343"
         sodipodi:rx="2.1318381"
         sodipodi:ry="1.341285"
         sodipodi:start="0"
         sodipodi:end="6.2745808"
         sodipodi:open="true"
         sodipodi:arc-type="arc"
         d="m 52.523588,177.48343 a 2.1318381,1.341285 0 0 1 -2.127252,1.34128 2.1318381,1.341285 0 0 1 -2.136404,-1.33551 2.1318381,1.341285 0 0 1 2.118061,-1.34703 2.1318381,1.341285 0 0 1 2.145517,1.32972"
         transform="rotate(-30.949925)" />
      <path
         style="fill:#a1dc31;fill-opacity:1;stroke:#000000;stroke-width:0.491;stroke-linecap:round;stroke-linejoin:round;stroke-miterlimit:4;stroke-dasharray:none;stroke-opacity:1;stop-color:#000000"
         id="path105273"
         sodipodi:type="arc"
         sodipodi:cx="150.66153"
         sodipodi:cy="88.808884"
         sodipodi:rx="2.1318381"
         sodipodi:ry="1.341285"
         sodipodi:start="0"
         sodipodi:end="6.2745808"
         sodipodi:open="true"
         sodipodi:arc-type="arc"
         d="m 152.79337,88.808884 a 2.1318381,1.341285 0 0 1 -2.12725,1.341282 2.1318381,1.341285 0 0 1 -2.13641,-1.335512 2.1318381,1.341285 0 0 1 2.11806,-1.347027 2.1318381,1.341285 0 0 1 2.14552,1.329716"
         transform="rotate(12.275087)" />
    </g>
    <path
       style="color:#000000;fill:#fadc5d;stroke:#000000;stroke-width:0.3;stroke-miterlimit:4;stroke-dasharray:none;stroke-opacity:1"
       d="m 128.87482,116.94727 c -1.46068,0.15033 -2.89613,0.46065 -4.22656,0.95117 -2.66088,0.98104 -4.93745,2.73628 -5.9043,5.42187 -1.78405,4.95549 0.85902,12.37896 7.28515,16.78906 -6.53565,3.84758 -18.48494,6.6297 -26.853514,7.10547 -0.700531,0.0398 -1.221087,-0.0267 -1.871094,-0.0176 -0.494241,-0.74096 -0.905149,-1.46825 -1.449219,-2.20313 -2.40316,-3.24597 -5.119071,-6.22762 -7.451172,-7.56641 -1.166047,-0.66939 -2.258966,-0.91112 -3.222656,-0.72461 -0.96369,0.18652 -1.723846,0.8155 -2.179687,1.59961 -0.6978,1.20031 -0.651292,2.73399 -0.236329,4.22266 -0.977317,0.53807 -1.831391,1.22871 -2.425781,2.11719 -0.966387,1.44453 -1.484421,3.16578 -1.730469,4.75976 -0.246045,1.59397 -0.239172,3.15169 0.392579,4.49805 0.631751,1.34636 1.931893,2.37256 3.849609,2.80078 0.21196,0.0473 0.483783,0.0273 0.708984,0.0625 -0.02975,0.997 0.02696,1.9768 0.240235,2.92774 -1.327772,0.0802 -2.380406,0.53405 -3.033203,1.31836 -0.65748,0.78993 -0.859118,1.81257 -0.794922,2.83593 0.128391,2.04672 1.231623,4.27948 2.603515,6.08203 1.076024,1.41382 2.362695,2.43436 3.716797,3.19727 -0.771645,0.80646 -1.393526,1.76589 -1.74414,2.875 -0.688772,2.17881 -0.308592,4.71149 0.8125,6.96484 1.121092,2.25336 3.009416,4.25234 5.486328,5.27149 0.68812,0.28313 1.449088,0.32015 2.185547,0.45508 0.167516,1.10836 0.514502,2.1452 1.291015,2.88671 1.131393,1.08041 2.896967,1.47529 4.978516,0.94141 0.528306,-0.1355 1.111921,-0.45944 1.673831,-0.69531 0.13153,0.59875 0.27498,1.18307 0.57422,1.66992 0.74625,1.21416 2.1108,1.87621 3.94336,2.03711 1.83252,0.1609 4.27504,-0.0812 6.51758,-0.96289 2.24253,-0.88165 4.32962,-2.4631 5.0664,-4.99219 0.7368,-2.52909 0.10573,-5.71363 -1.5625,-9.0625 -0.5258,-1.05552 -1.34059,-2.13369 -2.07617,-3.20703 9.07032,-0.78599 20.3657,-1.41363 29.33203,-1.12891 5.96433,0.18941 10.45247,0.75265 13.99024,0.68164 3.53777,-0.071 6.27442,-0.87516 8.13281,-3.42773 1.85838,-2.55257 2.86168,-6.59115 3.10742,-10.6875 0.24574,-4.09635 -0.2672,-8.23018 -1.85937,-10.99023 -0.43494,-0.75398 -0.96309,-1.36466 -1.53907,-1.88477 0.0648,-0.26791 0.22082,-0.52012 0.24805,-0.79102 0.1723,-1.71419 -0.54489,-3.23918 -1.57617,-4.56054 -1.03129,-1.32136 -2.39285,-2.49948 -3.71875,-3.65625 l -1.09571,1.2539 c 1.3259,1.15678 2.61693,2.29182 3.50196,3.42579 0.87127,1.11633 1.32036,2.17246 1.22265,3.31835 -1.23197,-0.6635 -2.59909,-0.96151 -3.95117,-0.91406 -2.61744,0.0919 -5.19495,1.31452 -6.91015,3.21485 -1.71521,1.90033 -2.48424,4.40992 -2.33985,6.76757 0.14439,2.35766 1.2295,4.61685 3.29688,5.85743 2.06735,1.24055 4.85901,1.39244 7.30468,0.80273 2.44568,-0.5897 4.69395,-1.97966 5.15235,-4.26562 0.4584,-2.28598 -0.90895,-4.74559 -2.54102,-6.8086 -0.095,-0.12012 -0.2054,-0.19537 -0.30273,-0.3125 0.40243,-0.48217 0.80283,-0.97186 1.10351,-1.5293 0.24148,0.28868 0.49507,0.55339 0.70313,0.91407 1.29574,2.24618 1.87136,6.17981 1.63867,10.05859 -0.23269,3.87878 -1.27278,7.72129 -2.79101,9.80664 -1.51823,2.08535 -3.49228,2.6754 -6.82032,2.74219 -3.32803,0.0668 -7.8633,-0.48785 -13.90429,-0.67969 -9.37618,-0.29774 -21.19295,0.37125 -30.40821,1.20899 -1.40435,-1.79564 -3.05067,-3.56695 -5.00781,-5.23438 -2.09394,-1.78398 -4.4897,-3.37955 -6.95117,-4.83203 0.8449,-1.10002 1.56972,-2.33538 1.96289,-3.74219 1.20726,-4.31973 -0.44681,-9.18147 -3.625004,-13.04101 0.173661,-0.008 0.300029,0.0139 0.476563,0.004 8.806461,-0.50066 21.153571,-3.29571 28.082031,-7.56445 0.0937,-0.0577 0.13487,-0.12725 0.22657,-0.18555 0.035,0.0194 0.0625,0.0453 0.0977,0.0645 3.82902,2.09113 8.69173,3.0906 13.19336,3.18945 4.50164,0.0988 8.62984,-0.65294 11.10352,-2.42969 2.47367,-1.77674 2.92351,-4.60998 2.20117,-7.19726 -0.72234,-2.58729 -2.48634,-5.07914 -4.49414,-6.85938 -0.96989,-0.85996 -1.99579,-1.5275 -3.02539,-2.0332 -0.19852,-0.50403 -0.31324,-1.03026 -0.58399,-1.50977 -2.28557,-4.04793 -7.10834,-6.82525 -12.82226,-7.40234 -1.42849,-0.14427 -2.91432,-0.15229 -4.375,-0.002 z m 0.17187,1.66015 c 1.34102,-0.13818 2.71699,-0.13313 4.03516,0 5.27269,0.53253 9.59319,3.11274 11.54101,6.5625 0.01,0.0173 0.0119,0.0374 0.0215,0.0547 -0.41666,-0.10704 -0.84762,-0.32634 -1.25195,-0.36914 -2.04037,-0.21598 -3.99083,0.48341 -4.91211,2.20703 -0.92128,1.72362 -0.79439,4.05436 -0.3418,6.72852 0.2782,1.64375 0.82965,3.53262 1.31055,5.35937 -0.16557,0.0774 -0.35978,0.17453 -0.51368,0.24805 -0.54443,0.26009 -1.00074,0.46978 -1.39257,0.82812 -0.31128,0.28468 -0.38885,0.68075 -0.43555,1.03516 -0.0293,-0.006 -0.008,-0.001 -0.0391,-0.008 -1.26802,-0.27469 -4.03193,-1.10736 -6.75196,-2.375 1.61906,-1.51873 2.8963,-3.09362 3.48438,-4.69727 0.91066,-2.48334 0.63585,-4.93755 -0.55469,-6.7832 -1.19055,-1.84567 -3.19578,-3.00609 -5.22851,-3.45899 -2.03273,-0.45289 -4.16999,-0.22668 -5.60157,1.05664 -1.43156,1.28333 -1.85914,3.39126 -1.52539,5.5625 0.0954,0.62053 0.39555,1.24942 0.61719,1.87891 -1.55608,-3.10649 -2.00383,-6.31237 -1.19727,-8.55273 0.76444,-2.12336 2.56185,-3.55854 4.91407,-4.42579 1.17611,-0.43362 2.48124,-0.71337 3.82226,-0.85156 z m -3.7539,6.86524 c 0.71695,-0.11795 1.53318,-0.0932 2.36328,0.0918 1.66018,0.36989 3.29779,1.351 4.1914,2.73633 0.89363,1.38535 1.14467,3.25042 0.39063,5.30664 -0.53499,1.45888 -1.83198,2.98766 -3.54883,4.47656 -1.23339,-0.68726 -2.3975,-1.45541 -3.30664,-2.35937 -1.62099,-1.61175 -2.57177,-3.62512 -2.84766,-5.41992 -0.27588,-1.79481 0.13419,-3.29746 0.99414,-4.06836 0.42998,-0.38545 1.04673,-0.64573 1.76368,-0.76367 z m 17.92578,1.03906 c 0.66159,0.07 1.40951,0.3379 2.16015,0.65039 0.93171,3.06437 0.49954,6.46019 -1.02539,8.53906 -0.8785,1.19763 -2.14914,2.0332 -3.3789,2.6875 -0.43178,-1.66416 -0.94812,-3.42788 -1.19336,-4.87695 -0.4301,-2.54131 -0.39655,-4.61157 0.16601,-5.66406 0.56256,-1.05249 1.67322,-1.50512 3.27149,-1.33594 z m 4.16406,1.82812 c 0.40001,0.27724 0.80749,0.45692 1.19531,0.80078 1.78492,1.58262 3.38998,3.89657 3.99414,6.06055 0.60416,2.16398 0.33736,4.02964 -1.56836,5.39844 -1.90572,1.36881 -5.81973,2.21112 -10.09765,2.11719 -0.71773,-0.0158 -1.45191,-0.20755 -2.1836,-0.27344 0.0201,-0.0445 0.0712,-0.0761 0.082,-0.11914 0.0947,-0.37486 -0.012,-0.53674 -0.0508,-0.64453 -0.0642,-0.1785 -0.0752,-0.21211 -0.082,-0.22657 0.0873,-0.0789 0.46837,-0.30809 0.98047,-0.55273 0.0556,-0.0265 0.14255,-0.07 0.20117,-0.0977 0.16122,0.58869 0.25433,1.11685 0.41797,1.70704 l 1.60352,-0.44532 c -0.19523,-0.7041 -0.29884,-1.3014 -0.48828,-1.99804 0.0485,-0.0246 0.0819,-0.0373 0.13086,-0.0625 1.3985,-0.72086 3.00808,-1.72382 4.17773,-3.31836 1.61233,-2.19803 2.18472,-5.30329 1.6875,-8.34571 z m -61.884769,9.99805 c 0.466936,-0.0904 1.147077,-1.6e-4 2.076172,0.5332 1.388186,0.79692 3.259914,2.73825 5.097656,4.91993 -2.730411,-1.51466 -5.572916,-2.38032 -7.914062,-2.04493 -0.175657,0.0252 -0.291339,0.14103 -0.458984,0.17969 -0.23601,-1.0609 -0.239815,-2.12934 0.142578,-2.78711 0.263376,-0.45304 0.589704,-0.71041 1.05664,-0.80078 z m -0.503906,5.05469 c 2.428114,-0.34785 6.417107,1.21007 9.701172,3.78125 -2.143648,-0.11548 -4.06106,-0.35366 -5.521484,-0.8125 -2.193252,-0.68908 -3.509582,-1.7263 -4.283204,-2.92774 0.03972,-0.007 0.06311,-0.0352 0.103516,-0.041 z m -1.716797,0.66211 c 1.000387,1.74371 2.809444,3.08112 5.398438,3.89453 1.418298,0.4456 3.099937,0.72836 4.988281,0.8789 -0.196443,0.0494 -0.417185,-0.027 -0.603516,0.0645 -0.657981,0.32298 -1.091991,0.93332 -1.294922,1.59179 -0.0041,0.0133 0.002,0.0296 -0.002,0.043 -0.03022,-0.0136 -0.04566,-0.0394 -0.07617,-0.0527 -1.6632,-0.72529 -3.813937,-1.02785 -5.501953,0.0469 -1.458553,0.92863 -2.134999,2.70573 -2.449218,4.59766 -0.157657,-0.0255 -0.377415,-0.0108 -0.521485,-0.043 -1.555269,-0.34729 -2.289117,-0.99633 -2.705078,-1.88281 -0.415961,-0.88648 -0.472816,-2.11895 -0.253906,-3.53711 0.218907,-1.41816 0.693868,-2.92962 1.46875,-4.08789 0.424527,-0.63457 0.94669,-1.13071 1.552734,-1.51367 z m 12.367188,4.79101 c 0.241871,0.006 0.495407,0.004 0.74414,0.006 0.08439,0.13306 0.177859,0.26437 0.259766,0.39649 -0.334305,-0.15711 -0.666936,-0.30653 -1.003906,-0.40235 z m 63.648444,0.76367 c 1.2123,-0.0425 2.36259,0.2464 3.38281,0.88086 -0.24777,0.5382 -0.57378,1.02099 -0.95117,1.50391 -0.38173,-0.38231 -0.74756,-0.85003 -1.12696,-1.16406 -0.64765,-0.53608 -1.24387,-0.81315 -1.84765,-1.08594 0.18428,-0.0207 0.3595,-0.12833 0.54297,-0.13477 z m -64.390632,0.75196 c 0.502015,0.0902 1.097653,0.29016 1.669922,0.63086 1.144539,0.68139 2.15744,1.80173 2.455078,3.03906 0.198713,0.82608 0.013,1.82706 -0.330078,2.85352 -0.01369,0.002 -0.01117,0.0136 -0.02539,0.0156 -0.836029,0.117 -2.403688,-0.41554 -3.453125,-1.31641 -0.419272,-0.35991 -0.726351,-0.80702 -1.015625,-1.25195 0.0335,-0.0653 0.101242,-0.0992 0.128907,-0.16992 0.320725,-0.8201 -0.0418,-1.66326 -0.564453,-2.25586 -0.107537,-0.12193 -0.303824,-0.18279 -0.427735,-0.29492 0.0094,-0.21311 -0.03231,-0.48119 0.01563,-0.63672 0.101303,-0.32871 0.241861,-0.4909 0.439453,-0.58789 0.197592,-0.097 0.605407,-0.11565 1.107422,-0.0254 z m 61.052742,0.17578 c -0.19028,0.52107 -0.30994,1.05852 -0.22461,1.61328 0.10691,0.69513 0.36427,1.3995 0.76757,2.01563 0.40331,0.61612 0.96835,1.16835 1.74219,1.38671 0.77382,0.21836 1.56267,0.0406 2.27539,-0.30468 0.42554,-0.20618 0.79577,-0.57904 1.18555,-0.89844 0.0615,0.0751 0.13109,0.12102 0.19141,0.19726 1.4864,1.87889 2.47964,4.11703 2.21289,5.44727 -0.26676,1.33027 -1.82831,2.47263 -3.91016,2.97461 -2.08185,0.50198 -4.53429,0.30414 -6.05664,-0.60938 -1.52232,-0.91349 -2.37455,-2.61232 -2.49219,-4.5332 -0.11764,-1.92088 0.52545,-4.01033 1.91406,-5.54883 0.64188,-0.71115 1.48917,-1.28495 2.39454,-1.74023 z m 1.5039,0.41992 c 0.004,-0.001 0.0624,-0.0236 0.23047,0.0195 0.33609,0.0862 1.07585,0.49788 1.84766,1.13672 0.33333,0.27591 0.67205,0.70488 1.01757,1.05078 -0.25933,0.19926 -0.52314,0.4694 -0.76367,0.58594 -0.47442,0.22986 -0.85382,0.26998 -1.09765,0.20117 -0.24381,-0.0688 -0.54612,-0.30821 -0.80078,-0.69726 -0.25467,-0.38906 -0.44606,-0.90515 -0.51563,-1.35743 -0.0696,-0.45227 0.0121,-0.82642 0.0645,-0.91406 0.0262,-0.0438 0.0135,-0.0239 0.0176,-0.0254 z m -68.533204,0.56055 c 0.700268,0.0248 1.441938,0.19733 2.095703,0.48242 0.291477,0.12711 0.431385,0.29505 0.667969,0.44922 0.0081,0.055 -0.01552,0.10298 -0.0059,0.1582 0.07976,0.4561 0.31211,0.91476 0.498047,1.375 -0.160963,0.11726 -0.145747,0.17499 -0.414062,0.29492 -0.656471,0.29345 -1.573106,0.55441 -2.580079,0.73633 -1.230595,0.22232 -2.543822,0.27866 -3.783203,0.2461 0.297567,-1.50702 0.865383,-2.81803 1.675782,-3.33399 0.487142,-0.31015 1.145435,-0.43296 1.845703,-0.4082 z m 3.332031,4.61914 c 0.03324,-0.005 0.132827,-0.003 0.302734,0.0703 0.339816,0.1463 0.886304,0.58153 1.414063,1.22852 0.749655,0.91901 1.383488,2.27017 1.851562,3.68164 -0.478959,0.43202 -0.952309,0.88129 -1.482422,1.20312 -0.06712,0.0408 -0.141194,0.0491 -0.208984,0.0879 -0.762412,-0.33174 -1.440807,-0.53099 -2.171875,-0.80859 -0.02093,-0.12053 -0.0739,-0.22322 -0.0918,-0.34375 -0.173146,-1.16601 -0.224838,-2.32258 -0.15625,-3.25195 0.06859,-0.92938 0.316839,-1.63298 0.445313,-1.79297 0.06424,-0.08 0.06441,-0.0689 0.09766,-0.0742 z m -1.988281,0.28906 c -0.114412,0.44346 -0.177807,0.92676 -0.216797,1.45508 -0.06802,0.92163 0.0179,1.99256 0.144531,3.0625 -1.707267,-0.56017 -3.180861,-0.85385 -4.544922,-0.99609 -0.292527,-0.94377 -0.444907,-1.95041 -0.429687,-3.03516 1.407315,0.0501 2.871376,-0.009 4.261718,-0.25977 0.292296,-0.0528 0.506278,-0.16212 0.785157,-0.22656 z m 10.636714,0.75391 c 0.23189,1.47909 0.28614,2.94181 -0.0898,4.28711 -0.35882,1.28392 -1.071216,2.40886 -1.87109,3.38867 -0.321578,-0.17711 -0.638891,-0.33813 -0.960938,-0.50781 0.0053,-0.58534 0.100737,-1.15748 0.01367,-1.75 -0.04696,-0.31957 -0.202319,-0.60347 -0.27539,-0.91797 0.705761,-0.74833 1.329564,-1.57184 1.822265,-2.44141 0.197454,-0.34848 0.269042,-0.72366 0.425782,-1.08398 0.385111,-0.23115 0.721821,-0.54393 0.935541,-0.97461 z m -4.539058,1.00781 c 0.567058,0.21899 1.138104,0.22251 1.710937,0.25195 -0.253976,0.4454 -0.617173,0.84696 -0.945312,1.26563 -0.225713,-0.55545 -0.484506,-1.01963 -0.765625,-1.51758 z m -12.449219,3.16016 c 0.126214,-0.007 0.385592,0.0785 0.525391,0.0801 0.130334,0.28687 0.168451,0.63539 0.330078,0.89649 1.078502,1.74223 2.852843,2.67297 4.740234,2.85156 0.522026,0.0494 1.061453,-0.0796 1.595703,-0.13476 0.45261,1.20594 1.057078,2.27104 1.908204,2.98437 0.659962,0.55312 1.455146,0.75459 2.25,0.77539 -0.336349,0.65357 -0.72993,1.24358 -1.164063,1.75781 -1.652966,-0.40476 -3.528666,-0.16703 -5.244141,0.68555 -0.410423,0.20398 -0.737533,0.55735 -1.121093,0.82227 -1.348152,-0.60172 -2.69863,-1.64959 -3.837891,-3.14649 -1.217667,-1.59992 -2.172163,-3.68783 -2.265625,-5.17773 -0.04673,-0.74495 0.101157,-1.29438 0.412109,-1.66797 0.310953,-0.3736 0.83966,-0.66866 1.871094,-0.72656 z m 2.570313,0.39453 c 1.216477,0.22147 2.520544,0.58602 4.078125,1.1289 0.04086,0.18986 0.09407,0.36935 0.140625,0.55664 -0.34558,0.0239 -0.707796,0.12082 -1.035157,0.0899 -1.31801,-0.12472 -2.391849,-0.73213 -3.183593,-1.77539 z m 9.857422,1.08203 c 7.75e-4,0.005 0.0031,0.0104 0.0039,0.0156 0.03139,0.2136 -0.02739,0.42104 -0.01172,0.63477 -0.161085,-0.0785 -0.321816,-0.17945 -0.482422,-0.25586 0.170825,-0.1216 0.325439,-0.26359 0.490235,-0.39453 z m -2.199219,1.36914 c 0.710686,0.32092 1.435485,0.77968 2.158203,1.14453 -0.0753,0.60496 -0.228801,1.15935 -0.404297,1.72852 -0.08581,0.0187 -0.191284,0.11319 -0.273437,0.12304 -0.591152,0.0709 -1.070994,-0.0475 -1.541016,-0.4414 -0.435636,-0.36511 -0.85842,-1.12365 -1.232422,-2.00782 0.441216,-0.13595 0.864349,-0.34685 1.292969,-0.54687 z m 5.130859,2.7207 c 2.508652,1.45816 4.953572,3.05504 7.050782,4.8418 1.5564,1.32601 2.85363,2.73334 4.03907,4.14453 -1.84978,0.1868 -4.52956,0.31452 -5.91993,0.51367 -3.09404,0.44318 -4.613966,0.86184 -5.625,1.20117 0.01723,-0.95537 -0.147975,-2.0698 -0.644531,-3.28125 -0.485146,-1.1836 -1.372185,-2.26459 -2.529297,-3.04492 0.713224,-0.8993 1.262704,-1.94021 1.677734,-3.09765 0.420934,-0.19808 0.87285,-0.25609 1.265625,-0.54883 0.254607,-0.18976 0.444337,-0.50501 0.685547,-0.72852 z m -7.255859,5.08789 c 0.126646,-0.015 0.214428,0.0364 0.33789,0.0293 -0.08141,0.0451 -0.152302,0.14253 -0.234375,0.18164 -0.689065,0.32838 -1.419331,0.43996 -2.167968,0.41406 0.686574,-0.29868 1.39257,-0.54556 2.064453,-0.625 z m 2.49414,0.46094 c 0.934983,0.51676 1.676059,1.41621 2.121094,2.50195 0.511995,1.24911 0.632232,2.65595 0.554688,3.10157 -0.03877,0.22278 -0.04181,0.19403 -0.138672,0.35351 -0.01211,0.0199 -0.02846,0.0369 -0.06836,0.13281 -0.01,0.024 -0.02095,0.0541 -0.0332,0.0977 -0.01225,0.0435 -0.03121,0.18673 -0.03125,0.1875 -3.8e-5,7.7e-4 0.06033,0.35298 0.06055,0.35352 2.17e-4,5.3e-4 0.323737,0.39031 0.324219,0.39062 4.82e-4,3.1e-4 0.360571,0.12687 0.361328,0.12695 4.69e-4,5e-5 0.07005,-0.001 0.126953,-0.002 -1.212229,0.49727 -2.295364,1.31206 -3.085937,2.44141 -1.00652,1.43783 -1.642977,3.17603 -1.796875,4.83789 -0.474724,-0.10763 -0.997765,-0.1133 -1.429688,-0.29102 -2.039293,-0.83909 -3.664382,-2.53792 -4.626953,-4.47265 -0.962571,-1.93474 -1.235861,-4.07874 -0.716797,-5.72071 0.325527,-1.02975 1.039897,-1.87204 1.875,-2.60156 1.611142,0.49553 3.296093,0.54456 4.828125,-0.18555 0.61245,-0.29187 1.140573,-0.78325 1.675781,-1.25195 z m 17.052741,5.00391 c 0.93721,1.2749 1.84329,2.55702 2.45703,3.78906 1.55069,3.11291 2.00812,5.95515 1.45508,7.85351 -0.55305,1.89838 -2.13173,3.14494 -4.07813,3.91016 -1.9464,0.76523 -4.21476,0.98935 -5.76172,0.85352 -1.54693,-0.13583 -2.23042,-0.53371 -2.67188,-1.25196 -0.18013,-0.29308 -0.14699,-1.08131 -0.24609,-1.55664 1.08857,-0.61302 2.18004,-1.34603 3.19532,-2.17383 2.10882,-1.71941 3.90531,-3.75137 4.50195,-5.85937 0.59665,-2.10802 -0.18986,-4.0637 -1.47656,-5.23633 -0.0482,-0.0439 -0.12006,-0.044 -0.16992,-0.0859 0.81089,-0.0898 1.89158,-0.15607 2.79492,-0.24218 z m -5.13477,0.82031 c 0.46944,0.0918 0.9542,0.34233 1.38867,0.73828 0.86895,0.79191 1.41782,2.06274 0.9961,3.55273 -0.42173,1.49002 -1.99754,3.4286 -3.95118,5.02149 -0.77032,0.62808 -1.60872,1.14851 -2.43359,1.64648 -0.003,-0.19657 -0.0736,-0.22745 -0.0703,-0.43945 0.008,-0.48681 0.15757,-1.09675 0.19336,-1.63867 0.76,-0.46838 1.47507,-0.96862 1.89453,-1.61914 0.50597,-0.7847 0.62164,-1.69314 0.42969,-2.49805 -0.18784,-0.78761 -0.64406,-1.47776 -1.22071,-2.05859 0.44814,-1.17484 0.95674,-2.15829 1.47461,-2.49024 0.37441,-0.23998 0.82939,-0.30662 1.29883,-0.21484 z m -3.22852,0.0547 c -0.37647,0.50975 -0.74015,1.02841 -0.99609,1.68554 -0.9457,-0.52621 -1.97766,-0.8626 -3.078126,-0.76757 0.651702,-0.23432 1.961196,-0.54761 4.074216,-0.91797 z m -4.644529,0.71875 c -0.003,0.0166 -0.0032,0.0317 -0.0059,0.041 -0.01169,0.0415 -0.02231,0.0683 -0.03125,0.0898 -0.03576,0.086 -0.04556,0.0896 -0.04687,0.0918 -0.0025,0.004 0.06032,-0.18085 0.08398,-0.22265 z m 0.589844,1.82617 c 0.818377,-0.10511 1.730625,0.24826 2.521485,0.74414 -0.0561,0.2109 -0.14788,0.38209 -0.19922,0.59766 -0.30745,1.291 -0.33733,2.57008 -0.45898,3.88476 -0.76264,0.37689 -1.628615,0.73704 -2.623051,0.95508 -1.233927,0.27055 -2.557235,0.3393 -3.853515,0.25 0.001,-0.0159 -0.0051,-0.027 -0.0039,-0.043 0.0974,-1.35174 0.673668,-2.93843 1.537109,-4.17187 0.863441,-1.23345 1.984205,-2.07605 3.080078,-2.2168 z m 3.886715,2.18359 c 0.0554,0.12322 0.19642,0.247 0.22461,0.36524 0.10067,0.42213 0.0611,0.79205 -0.20898,1.21093 -0.0354,0.0549 -0.17424,0.11901 -0.2207,0.17579 0.0858,-0.60576 0.0804,-1.17093 0.20507,-1.75196 z m -2.24414,4.91016 c -0.01,0.25107 -0.09,0.56266 -0.0937,0.80078 -0.008,0.49406 0.0475,0.89024 0.0684,1.33398 -0.64969,0.30118 -1.327431,0.64958 -1.878904,0.79102 -1.698161,0.43554 -2.739056,0.11333 -3.414062,-0.53125 -0.346964,-0.33133 -0.605658,-0.79085 -0.767578,-1.33594 1.375507,0.0649 2.756557,-0.0641 4.041015,-0.3457 0.754246,-0.16538 1.375129,-0.46121 2.044919,-0.71289 z"
       id="path86724" />
    <path
       style="color:#000000;fill:#fadc5d;fill-opacity:1;stroke:#000000;stroke-width:0.2;stroke-miterlimit:4;stroke-dasharray:none;stroke-opacity:1"
       d="m 128.87482,116.94727 c -1.46068,0.15033 -2.89613,0.46065 -4.22656,0.95117 -2.66088,0.98104 -4.93745,2.73628 -5.9043,5.42187 -1.76308,4.89724 0.7932,12.20826 7.05469,16.63672 0.009,0.0152 0.0143,0.069 0.0215,0.082 0.17304,0.31398 0.22872,0.35942 0.25,0.43164 0.0213,0.0722 0.0728,0.0604 -0.10352,0.29492 -0.17634,0.23452 -0.66657,0.6553 -1.69531,1.13868 -2.05749,0.96676 -6.26534,2.21301 -10.4707,3.54492 -4.20536,1.33191 -8.41073,2.73328 -10.83985,4.30469 -1.03573,0.67001 -1.68139,1.38863 -2.11523,2.13086 -0.7861,-1.45652 -1.711562,-2.86122 -2.890627,-4.10352 -3.785306,-3.98831 -9.236364,-6.6026 -13.197266,-6.03516 -1.980446,0.28372 -3.451581,1.45196 -4.417969,2.89649 -0.966387,1.44453 -1.484421,3.16578 -1.730469,4.75976 -0.246045,1.59397 -0.239172,3.15169 0.392579,4.49805 0.631751,1.34636 1.931893,2.37256 3.849609,2.80078 1.917692,0.42822 4.388416,0.3462 6.71875,0.34375 0.215579,-2.2e-4 0.39098,0.0193 0.603516,0.0215 -0.04044,0.26988 -0.09927,0.51875 -0.121094,0.81445 -0.06585,0.89225 0.02375,1.93086 0.140625,2.96484 -2.395606,-0.72594 -4.660237,-1.25598 -6.367188,-1.16015 -1.34131,0.0753 -2.401114,0.53428 -3.058593,1.32422 -0.65748,0.78993 -0.859118,1.81257 -0.794922,2.83593 0.128391,2.04672 1.231623,4.27948 2.603515,6.08203 1.371879,1.80255 3.03887,3.14496 4.824219,3.85157 1.785349,0.7066 3.715193,0.75726 5.439453,-0.0645 2.028236,-0.96658 3.598591,-3.0477 4.486328,-5.52343 0.420934,-0.19808 0.87285,-0.25609 1.265625,-0.54883 0.407239,-0.30352 0.725369,-0.77884 1.095703,-1.16602 1.471936,0.75846 2.826936,1.51318 3.740236,2.15235 1.01532,0.71057 1.58353,1.29209 1.88086,1.74023 0.29733,0.44814 0.35302,0.74744 0.35156,1.08984 -10e-4,0.34241 -0.1,0.74161 -0.18554,1.2461 -0.0856,0.50449 -0.14297,1.13172 0.0605,1.8164 0.17215,0.57918 0.5101,1.11424 0.85938,1.65039 -0.52532,0.067 -1.47819,0.175 -1.94727,0.24219 -0.57972,0.083 -0.79607,0.1608 -1.28711,0.24414 -0.0298,-0.041 -0.0501,-0.0782 -0.0801,-0.11914 -0.64667,-0.8829 -1.33181,-1.74618 -1.97266,-2.45508 -0.64084,-0.70889 -1.1774,-1.25781 -1.812496,-1.57226 -0.317545,-0.15722 -0.722923,-0.25459 -1.125,-0.11524 -0.402076,0.13936 -0.652857,0.47238 -0.779297,0.75391 -0.252879,0.56305 -0.253122,1.11738 -0.251953,1.73242 0.0023,1.23008 0.130279,2.73798 0.05273,3.1836 -0.03877,0.22278 -0.04181,0.19403 -0.138672,0.35351 -0.01211,0.0199 -0.02846,0.0369 -0.06836,0.13281 -0.01,0.024 -0.02095,0.0541 -0.0332,0.0977 -0.01225,0.0435 -0.03121,0.18673 -0.03125,0.1875 -3.8e-5,7.7e-4 0.06033,0.35298 0.06055,0.35352 2.17e-4,5.3e-4 0.323737,0.39031 0.324219,0.39062 4.82e-4,3.1e-4 0.360571,0.12687 0.361328,0.12695 4.69e-4,5e-5 0.07005,-10e-4 0.126953,-0.002 -1.212229,0.49727 -2.295364,1.31206 -3.085937,2.44141 -1.040666,1.48661 -1.710593,3.2954 -1.833985,5.00781 -0.12339,1.71238 0.31978,3.34147 1.451172,4.42187 1.131393,1.08041 2.896967,1.47529 4.978516,0.94141 2.081512,-0.53386 4.506402,-1.90949 6.615242,-3.62891 2.10882,-1.71941 3.90531,-3.75137 4.50195,-5.85937 0.59665,-2.10802 -0.20155,-3.99651 -1.12109,-5.49609 -0.0114,-0.0186 -0.0159,-0.0244 -0.0273,-0.043 3.85112,-0.44773 7.84095,-0.85162 12.76758,-1.58985 6.69765,-1.0036 13.51624,-2.42003 18.24805,-4.82031 4.73181,-2.40027 7.22494,-5.77072 8.52734,-8.67773 0.42925,-0.95809 0.58886,-1.72334 0.80664,-2.53125 0.0142,0.0425 0.0181,0.0974 0.0332,0.13867 0.096,0.26339 0.17607,0.50864 0.46485,0.77734 0.14439,0.13435 0.38867,0.28224 0.68554,0.29102 0.29688,0.009 0.56029,-0.12729 0.72071,-0.26367 0.32082,-0.27277 0.42172,-0.52772 0.5664,-0.8418 0.14469,-0.31408 0.28294,-0.68189 0.42579,-1.09766 0.28568,-0.83152 0.58413,-1.85201 0.89062,-2.88281 0.30649,-1.0308 0.62018,-2.07163 0.91992,-2.91602 0.2356,-0.66369 0.43596,-1.02122 0.58594,-1.28515 0.14104,0.19588 0.27885,0.37212 0.48828,0.73633 0.60276,1.04817 1.29022,2.5867 2.83789,3.02343 0.77382,0.21836 1.56267,0.0406 2.27539,-0.30468 0.71273,-0.34533 1.38231,-0.87105 1.98633,-1.50391 1.20805,-1.26572 2.17731,-2.95187 2.34961,-4.66602 0.1723,-1.71419 -0.54489,-3.23918 -1.57617,-4.56054 -1.03129,-1.32136 -2.39285,-2.49948 -3.71875,-3.65625 l -1.09571,1.2539 c 1.3259,1.15678 2.61693,2.29182 3.50196,3.42579 0.88503,1.13397 1.34776,2.20414 1.23047,3.37109 -0.1173,1.167 -0.90819,2.64616 -1.89649,3.68164 -0.49414,0.51774 -1.03144,0.92639 -1.50586,1.15625 -0.47442,0.22986 -0.85382,0.26998 -1.09765,0.20117 -0.48763,-0.1376 -1.23518,-1.18686 -1.84766,-2.25195 -0.30624,-0.53255 -0.56558,-1.03218 -1.00391,-1.44336 -0.21916,-0.20559 -0.53932,-0.42524 -0.97265,-0.42774 -0.43333,-0.002 -0.81241,0.24733 -1.05078,0.52149 -0.47674,0.54832 -0.73728,1.26671 -1.0586,2.17187 -0.32132,0.90517 -0.63984,1.96409 -0.94726,2.99805 -0.30356,1.02097 -0.59449,2.01241 -0.85742,2.78125 -0.0266,-0.13476 -0.0577,-0.21228 -0.082,-0.34961 -0.10381,-0.58502 -0.18869,-1.15961 -0.27929,-1.57617 -0.0226,-0.10414 -0.0446,-0.19898 -0.0762,-0.29883 -0.0316,-0.0999 -0.0237,-0.18746 -0.2168,-0.41211 -0.0966,-0.11232 -0.33406,-0.32087 -0.69531,-0.30469 -0.36126,0.0162 -0.57531,0.24335 -0.66211,0.36329 -0.17361,0.23987 -0.16266,0.33155 -0.18946,0.44921 -0.10716,0.47064 -0.14876,1.0956 -0.3457,2.0586 -0.19694,0.963 -0.52447,2.17793 -1.11328,3.49219 -1.17763,2.62851 -3.37639,5.65048 -7.76172,7.875 -4.38533,2.22452 -11.1093,3.6646 -17.74023,4.6582 -5.15629,0.77264 -9.51048,1.20596 -13.48828,1.67773 -0.44866,-0.66377 -1.06167,-1.50937 -1.17383,-1.88672 -0.10366,-0.34872 -0.0832,-0.65449 -0.0137,-1.06445 0.0695,-0.40996 0.20443,-0.90611 0.20703,-1.51562 0.003,-0.60951 -0.16602,-1.31992 -0.62891,-2.01758 -0.46289,-0.69767 -1.19008,-1.39807 -2.3125,-2.1836 -0.90397,-0.63264 -2.20057,-1.33844 -3.52344,-2.0371 0.67717,-0.98981 1.22476,-2.11297 1.56054,-3.31446 0.40013,-1.4317 0.40807,-2.92573 0.24024,-4.42773 0.0764,-0.54442 -0.0623,-1.01802 -0.21875,-1.44531 -0.0567,-0.15492 -0.0916,-0.30771 -0.14844,-0.4629 -0.11166,-0.43583 -0.176,-0.86791 -0.32812,-1.29882 -0.0554,-0.44092 -0.0721,-0.86514 0.13672,-1.32422 0.24025,-0.52818 0.73791,-1.14112 1.76367,-1.80469 2.05151,-1.32713 6.25721,-2.79065 10.43946,-4.11523 4.18224,-1.32459 8.34047,-2.52575 10.67578,-3.62305 1.16765,-0.54865 1.87928,-1.06515 2.3164,-1.64649 0.1794,-0.23857 0.0849,-0.46822 0.15235,-0.7246 0.0812,0.0459 0.14628,0.10548 0.22851,0.15039 3.82902,2.09113 8.66981,3.08119 12.9375,3.53125 4.26769,0.45005 7.91245,0.35649 9.4961,0.15429 0.39591,-0.0505 0.62195,-0.0546 0.97851,-0.24609 0.0891,-0.0479 0.19967,-0.11113 0.32031,-0.26758 0.12065,-0.15645 0.22028,-0.46274 0.16797,-0.71875 -0.10461,-0.51202 -0.37997,-0.58641 -0.52148,-0.66211 -0.28303,-0.1514 -0.52269,-0.20183 -0.85938,-0.2793 -0.33668,-0.0775 -0.74463,-0.15387 -1.21875,-0.23242 -1.89647,-0.3142 -4.85164,-0.66144 -7.80859,-1.00976 l -0.18945,1.61718 c -0.0696,-0.007 -0.11961,-0.002 -0.18946,-0.01 -0.72049,-0.076 -1.48275,-0.27729 -2.22656,-0.38867 0.0971,-0.11406 0.20798,-0.22783 0.24023,-0.35547 0.0947,-0.37486 -0.012,-0.53674 -0.0508,-0.64453 -0.0642,-0.1785 -0.0752,-0.21211 -0.082,-0.22657 0.0873,-0.0789 0.46837,-0.30809 0.98047,-0.55273 0.51408,-0.24559 1.16598,-0.53605 1.86524,-0.89648 1.3985,-0.72086 3.00808,-1.72382 4.17773,-3.31836 2.33931,-3.18909 2.66251,-8.28608 0.37695,-12.33399 -2.28557,-4.04793 -7.10834,-6.82525 -12.82226,-7.40234 -1.42849,-0.14427 -2.91432,-0.15229 -4.375,-0.002 z m 0.17187,1.66015 c 1.34102,-0.13818 2.71699,-0.13313 4.03516,0 5.27269,0.53253 9.59319,3.11274 11.54101,6.5625 1.94784,3.44979 1.59354,7.9914 -0.26953,10.53125 -0.93152,1.26992 -2.30235,2.1536 -3.59961,2.82227 -0.64862,0.33433 -1.27392,0.61491 -1.81836,0.875 -0.54443,0.26009 -1.00074,0.46978 -1.39257,0.82812 -0.31128,0.28468 -0.38885,0.68075 -0.43555,1.03516 -0.0293,-0.006 -0.008,-0.001 -0.0391,-0.008 -1.05891,-0.22939 -3.21949,-0.79822 -5.26953,-1.33789 -1.94187,-0.5112 -3.6287,-0.9534 -4.52149,-1.12696 -5.98689,-4.03019 -8.39268,-10.94367 -6.9668,-14.90429 0.76444,-2.12336 2.56185,-3.55854 4.91407,-4.42579 1.17611,-0.43362 2.48124,-0.71337 3.82226,-0.85156 z m -44.052735,24.78516 c 2.953777,-0.42316 8.290369,1.88587 11.753906,5.53515 0.153399,0.16163 0.251998,0.35505 0.398438,0.52149 -1.374519,-0.75857 -2.85169,-1.1625 -4.085938,-0.55664 -0.657981,0.32298 -1.091991,0.93332 -1.294922,1.59179 -0.20293,0.65848 -0.211633,1.38197 -0.08203,2.12305 0.112856,0.64533 0.380054,1.30395 0.705078,1.94531 -0.135227,-0.008 -0.254995,-0.081 -0.394531,-0.0586 -0.433204,0.0695 -0.850396,0.32212 -1.132812,0.67383 -0.05641,0.0703 -0.06847,0.16765 -0.117188,0.24219 -0.39961,-0.003 -0.767376,-0.0317 -1.175781,-0.0312 -2.358127,0.002 -4.798223,0.0446 -6.353516,-0.30274 -1.555269,-0.34729 -2.289117,-0.99633 -2.705078,-1.88281 -0.415961,-0.88648 -0.472816,-2.11895 -0.253906,-3.53711 0.218907,-1.41816 0.693868,-2.92962 1.46875,-4.08789 0.774882,-1.15827 1.792638,-1.9642 3.269531,-2.17578 z m 9.908203,6.96875 c 0.502015,0.0902 1.097653,0.29016 1.669922,0.63086 1.144539,0.68139 2.15744,1.80173 2.455078,3.03906 0.221695,0.92162 0.01513,2.05688 -0.310547,3.15039 -1.206209,-0.25804 -2.55428,-0.7875 -3.498047,-1.59766 -1.049413,-0.90085 -1.708236,-2.18724 -1.896484,-3.26367 -0.09412,-0.53821 -0.0681,-1.01699 0.0332,-1.3457 0.101303,-0.32871 0.241861,-0.4909 0.439453,-0.58789 0.197592,-0.097 0.605407,-0.11565 1.107422,-0.0254 z m 5.783202,5.6875 c 0.10452,0.41573 0.18126,0.82852 0.24219,1.24219 -0.0344,0.0175 0.0106,0.006 -0.20508,0.0469 -0.0721,0.0136 -0.22674,-0.0158 -0.31445,-0.008 0.11882,-0.42883 0.21862,-0.83238 0.27734,-1.28125 z m -8.753905,1.08398 c 0.803447,0.046 1.415586,0.14718 2,0.26563 0.01602,0.0192 0.02697,0.0175 0.04297,0.0371 1.055518,1.29397 2.079115,3.39064 2.375,5.40429 0.01342,0.0913 -0.01441,0.18007 -0.0039,0.27149 -0.675508,-0.28928 -1.289299,-0.60748 -1.978516,-0.87696 -0.84017,-0.32849 -1.625197,-0.53119 -2.453125,-0.8164 -0.0091,-0.0568 -0.03453,-0.1053 -0.04297,-0.16211 -0.173146,-1.16601 -0.224838,-2.32258 -0.15625,-3.25195 0.03333,-0.45159 0.13271,-0.5625 0.216797,-0.8711 z m 5.769531,1.47852 c 0.151577,0.0422 0.301199,0.0961 0.451172,0.13086 -0.09022,0.18904 -0.176289,0.34325 -0.267578,0.51172 -0.03249,-0.20583 -0.121272,-0.42303 -0.183594,-0.64258 z m 3.371094,0.3457 c -0.003,0.85707 -0.033,1.71223 -0.25586,2.50977 -0.30247,1.08229 -0.844315,2.08416 -1.480468,2.9707 -0.425082,-0.20714 -0.903642,-0.39353 -1.347656,-0.59766 -0.01469,-0.41782 0.07157,-0.8216 0.0098,-1.24218 -0.02767,-0.18832 -0.125157,-0.35424 -0.162109,-0.54102 0.270842,-0.14199 0.39849,-0.28609 0.550781,-0.46289 0.161978,-0.18804 0.326398,-0.41259 0.498047,-0.67578 0.339944,-0.52124 0.704151,-1.19393 1.027344,-1.95899 0.375031,0.008 0.783881,0.0763 1.117191,0.0137 0.0147,-0.003 0.0282,-0.0127 0.043,-0.0156 z m -17.154297,2.39063 c 1.466194,-0.0823 3.961047,0.54326 6.613281,1.38281 0.437994,2.11162 1.126893,4.15557 2.486329,5.29492 0.659962,0.55312 1.455146,0.75459 2.25,0.77539 -0.807943,1.56995 -1.932266,2.83532 -3.142579,3.41211 -1.273598,0.60695 -2.671298,0.58752 -4.111328,0.0176 -1.440029,-0.56994 -2.895601,-1.71061 -4.113281,-3.31055 -1.217667,-1.59992 -2.172163,-3.68783 -2.265625,-5.17773 -0.04673,-0.74495 0.101157,-1.29438 0.412109,-1.66797 0.310953,-0.3736 0.83966,-0.66866 1.871094,-0.72656 z m 8.509766,2.00195 c 0.45752,0.16505 0.876423,0.25665 1.333984,0.43555 0.887022,0.34681 1.688284,0.75364 2.550781,1.13476 -0.06125,0.74876 -0.196707,1.44789 -0.412109,2.14649 -0.08581,0.0187 -0.191284,0.11319 -0.273437,0.12304 -0.591152,0.0709 -1.070994,-0.0475 -1.541016,-0.4414 -0.644176,-0.53989 -1.208351,-1.89303 -1.658203,-3.39844 z m 5.546875,2.31055 c 0.05105,0.0242 0.107449,0.046 0.158203,0.0703 -0.05581,0.0516 -0.103816,0.1228 -0.160156,0.17187 0.01116,-0.0788 -0.0076,-0.16299 0.002,-0.24218 z m 0.890625,8.625 c 0.252751,0.19216 0.557963,0.42055 1.005859,0.91601 0.454862,0.50316 0.958032,1.15941 1.449222,1.80469 -1.09281,0.23386 -1.943531,0.42282 -2.494144,0.60742 0.03365,-0.90531 -0.01988,-1.89146 -0.02148,-2.73437 -5.77e-4,-0.30362 0.03341,-0.39984 0.06055,-0.59375 z m 8.544921,3.4375 c 0.15811,0.22867 0.32314,0.44612 0.46875,0.68359 0.82421,1.34411 1.36118,2.68188 0.93946,4.17187 -0.42173,1.49002 -1.99754,3.4286 -3.95118,5.02149 -1.95364,1.59289 -4.28032,2.87109 -5.978514,3.30664 -1.698161,0.43554 -2.739056,0.11333 -3.414062,-0.53125 -0.675006,-0.64458 -1.038812,-1.74784 -0.941406,-3.09961 0.0974,-1.35174 0.673668,-2.93843 1.537109,-4.17187 0.863441,-1.23345 1.984205,-2.07605 3.080078,-2.2168 1.095885,-0.14076 2.556435,0.41529 3.705075,0.93359 0.57432,0.25915 1.02971,0.50057 1.5293,0.6211 0.24979,0.0603 0.62919,0.17521 1.06446,-0.18164 0.21763,-0.17843 0.33228,-0.46143 0.35742,-0.66797 0.0251,-0.20654 -0.003,-0.36295 -0.0391,-0.51172 -0.14499,-0.59507 -0.48654,-1.18865 -0.96095,-1.97266 -0.17496,-0.28915 -0.43056,-0.63318 -0.63671,-0.94726 0.2187,-0.0336 0.27702,-0.064 0.51171,-0.0977 0.64165,-0.0919 1.97276,-0.24687 2.72852,-0.33984 z m -5.01953,0.77343 c 0.34608,0.50533 0.72634,1.03332 0.99219,1.47266 0.0998,0.16489 0.09,0.18727 0.17382,0.33984 -0.007,-0.003 -0.008,-0.003 -0.0156,-0.006 -1.13513,-0.5122 -2.72624,-1.18662 -4.396479,-1.04687 0.560137,-0.20057 1.663459,-0.45098 3.246089,-0.75977 z m -3.830079,0.56446 c -0.003,0.0166 -0.0032,0.0317 -0.0059,0.041 -0.01169,0.0415 -0.02231,0.0683 -0.03125,0.0898 -0.03576,0.086 -0.04556,0.0896 -0.04687,0.0918 -0.0025,0.004 0.06032,-0.18085 0.08398,-0.22265 z"
       id="path86730" />
    <g
       id="g112055"
       transform="translate(142.68055,100.03917)">
      <path
         style="fill:#a54216;fill-opacity:1;stroke:#000000;stroke-width:0.765;stroke-linecap:butt;stroke-linejoin:miter;stroke-miterlimit:4;stroke-dasharray:none;stroke-opacity:1"
         d="m 7.7242565,73.101467 c 0.7971267,0.950342 2.0170222,2.591034 2.5704295,3.785841 0.553407,1.194806 0.440585,1.943775 0.76542,2.947225 0.324835,1.00345 1.087076,2.261226 1.742137,3.28924 0.65506,1.028015 1.202883,1.826217 1.433354,2.420144 0.230471,0.593927 0.143835,0.983652 0.218347,1.487219 0.07451,0.503568 0.309998,1.120819 0.155619,1.982636 -0.15438,0.861816 -0.698432,1.968348 -1.465556,2.948519 -0.767124,0.980171 -1.757344,1.834051 -2.593915,2.285794 -0.8365712,0.451744 -1.5196723,0.501333 -2.2560977,0.941437 -0.7364254,0.440103 -1.5258786,1.270662 -4.4277058,-0.537028 -2.90182723,-1.807689 -7.9160933,-6.253707 -11.1385945,-9.747979 -3.222501,-3.494272 -4.652975,-6.036672 -3.751313,-7.988083 0.901663,-1.951411 4.1354052,-3.311359 7.3911482,-4.093671 3.25574307,-0.782311 6.5331712,-0.986989 8.35917,-0.959262 1.8259988,0.02773 2.2004306,0.287625 2.9975573,1.237968 z"
         id="path105318"
         inkscape:path-effect="#path-effect105320"
         inkscape:original-d="m 7.3012659,72.410818 c 1.22016,1.640959 2.440056,3.281651 3.6596871,4.922078 -0.112561,0.749263 -0.225382,1.498232 -0.338473,2.24695 0.762537,1.258091 1.524778,2.515867 2.28677,3.773403 0.548111,0.798499 1.095933,1.596702 1.643501,2.394656 -0.08638,0.390006 -0.173011,0.779732 -0.259913,1.169202 0.23576,0.617543 0.471247,1.234794 0.706474,1.851795 -0.543811,1.106842 -1.087863,2.213374 -1.632193,3.319666 -0.989994,0.854175 -1.980213,1.708055 -2.970715,2.561688 -0.6828631,0.04985 -1.3659641,0.09944 -2.0493431,0.14877 -0.789221,0.830857 -1.578674,1.661416 -2.36841,2.491729 -5.01420401,-4.445934 -10.02847,-8.891952 -15.043105,-13.338326 -1.4302659,-2.542235 -2.8607389,-5.084635 -4.2915049,-7.62735 3.234137,-1.359738 6.4678799,-2.719686 9.7014239,-4.079928 3.27782499,-0.204419 6.555253,-0.409098 9.832483,-0.614045 0.374711,0.260176 0.749144,0.520073 1.123318,0.779712 z" />
      <path
         style="fill:#e7b39b;fill-opacity:1;stroke:none;stroke-width:0.765;stroke-linecap:butt;stroke-linejoin:miter;stroke-miterlimit:4;stroke-dasharray:none;stroke-opacity:1"
         d="m 5.5485459,73.871071 c 0.4668429,0.699424 1.4003038,2.097935 1.9537752,3.292795 0.5534713,1.19486 0.7270548,2.185955 1.012128,3.244432 0.2850733,1.058477 0.6815412,2.184187 0.8363903,2.941888 0.1548492,0.757702 0.068215,1.147419 0.1427263,1.650991 0.074511,0.503571 0.3099931,1.120811 0.9145943,1.873617 0.604602,0.752805 1.578095,1.641153 1.180784,2.494437 -0.397311,0.853284 -2.1652256,1.671712 -3.4591747,2.271627 -1.293949,0.599916 -2.1137845,0.98125 -2.8501298,1.421354 -0.7363454,0.440104 -1.3890363,0.938901 -3.7657017,-0.569508 -2.37666531,-1.508409 -6.4773444,-5.024184 -9.2430447,-8.053322 -2.7657001,-3.029139 -4.1961741,-5.571539 -3.2945121,-7.52295 0.901663,-1.951411 4.1354052,-3.311359 6.5882559,-3.982765 2.4528508,-0.671406 4.12450225,-0.6543 5.5805952,-0.499846 1.456093,0.154454 2.6964217,0.446171 3.3164464,0.591997 0.6200246,0.145826 0.6200246,0.145829 1.0868674,0.845253 z"
         id="path107777"
         inkscape:path-effect="#path-effect107781"
         inkscape:original-d="m 5.0817031,73.171647 c 0.9337465,1.398807 1.8672074,2.797318 2.8004424,4.195622 0.1738586,0.99142 0.3474422,1.982515 0.5207717,2.973406 0.3967575,1.126046 0.7932256,2.251756 1.1894545,3.377274 -0.086375,0.390007 -0.1730089,0.779725 -0.259913,1.169202 0.2357609,0.617543 0.4712426,1.234783 0.7064743,1.851795 0.973817,0.888666 1.947311,1.777013 2.920598,2.665149 C 11.19178,90.222834 9.423866,91.041262 7.6555876,91.859471 6.8359684,92.241092 6.0161328,92.622426 5.195984,93.003519 4.5435191,93.50261 3.8908285,94.001408 3.2378345,94.49997 -0.8627462,90.984317 -4.9634254,87.468542 -9.0644541,83.952429 c -1.4302659,-2.542235 -2.8607389,-5.084635 -4.2915049,-7.62735 3.234137,-1.359738 6.4678799,-2.719686 9.7014239,-4.079928 1.6720201,0.01737 3.34367155,0.03448 5.0151658,0.05132 1.2406494,0.291995 2.480978,0.583713 3.7210724,0.875173 z"
         sodipodi:nodetypes="cccccccccccccccc" />
      <path
         style="fill:#cc9074;fill-opacity:1;stroke:none;stroke-width:0.264583px;stroke-linecap:butt;stroke-linejoin:miter;stroke-opacity:1"
         d="m -2.3253379,88.91059 c 0.8263776,-0.34402 2.35458702,-1.08022 4.0517768,-1.477307 1.6971897,-0.397086 3.5631404,-0.455102 4.78321,-0.910245 1.2200697,-0.455143 1.7944939,-1.307445 2.1530929,-1.947259 0.358599,-0.639813 0.5013693,-1.067205 0.2649807,-1.637949 -0.2363886,-0.570743 -0.852212,-1.284923 -1.6261827,-1.523595 -0.7739707,-0.238672 -1.7059805,-0.0015 -2.8756032,0.627068 -1.1696228,0.62857 -2.576645,1.648481 -3.96812447,2.135734 -1.39147947,0.487253 -2.76755763,0.441787 -4.03140893,0.539134 -1.2638513,0.09735 -2.4153287,0.337552 -2.9333108,0.52206 -0.517982,0.184508 -0.4025004,0.312987 0.2206976,0.956967 0.6231981,0.64398 1.7540519,1.803419 2.381897,2.407247 0.627845,0.603829 0.7525975,0.652165 1.5789751,0.308145 z"
         id="path109692"
         inkscape:path-effect="#path-effect109694"
         inkscape:original-d="M -3.0272812,89.302824 C -1.4988071,88.566888 0.02940244,87.830688 1.5573474,87.094223 3.4236371,87.03647 5.2895878,86.978455 7.1553111,86.920172 7.7300229,86.0681 8.3044471,85.215798 8.8786183,84.363215 9.0216589,83.936072 9.1644292,83.50868 9.306938,83.081012 8.6913544,82.367069 8.0755312,81.652889 7.4594309,80.93843 6.5276486,81.175875 5.5956387,81.413045 4.663346,81.649955 3.2565313,82.670173 1.8495085,83.690083 0.44219291,84.70975 -0.93367578,84.664546 -2.309754,84.61908 -3.6861244,84.573347 c -1.1512595,0.24048 -2.3027373,0.480682 -3.4545029,0.720627 0.1157518,0.128752 0.2312342,0.257231 0.3464544,0.38545 1.1311641,1.159751 2.2620181,2.31919 3.3926303,3.478388 0.125021,0.0486 0.2497723,0.09694 0.3742614,0.145012 z" />
      <path
         style="fill:#cc9074;fill-opacity:1;stroke:none;stroke-width:0.264583px;stroke-linecap:butt;stroke-linejoin:miter;stroke-opacity:1"
         d="m -11.267954,79.209161 c 1.2960531,-0.474012 2.5919588,-0.94797 4.7158848,-1.596579 2.1239261,-0.648608 5.0757261,-1.471839 7.03437913,-1.582772 1.95865307,-0.110934 2.92392887,0.490181 3.56817367,0.499655 0.6442447,0.0095 0.9677848,-0.572573 1.277189,-0.495622 0.3094042,0.07695 0.604476,0.812654 0.5086388,1.375622 -0.095837,0.562967 -0.5824734,0.953512 -1.3023589,0.997094 -0.7198856,0.04358 -1.6732567,-0.259923 -2.5474234,-0.136207 -0.8741667,0.123717 -1.66881729,0.67478 -2.58123443,0.69498 -0.91241717,0.0202 -1.94278807,-0.490636 -3.09434377,-0.331747 -1.1515557,0.158889 -2.4239049,0.987683 -3.4428899,1.698312 -1.0189849,0.710628 -1.7844694,1.303004 -2.5500056,1.895419"
         id="path111628"
         inkscape:path-effect="#path-effect111630"
         inkscape:original-d="m -11.267954,79.209161 c 1.2961694,-0.473694 2.5920748,-0.947653 3.8877155,-1.421874 2.952183,-0.822999 5.9039832,-1.646229 8.8555778,-2.469742 0.9655789,0.601403 1.9308544,1.202518 2.8958848,1.803379 0.3238182,-0.581809 0.6473586,-1.163857 0.9706411,-1.746182 0.2953483,0.735997 0.5904203,1.4717 0.8852336,2.207155 -0.4863914,0.390826 -0.9730282,0.78137 -1.4599393,1.171659 C 3.8140147,78.450304 2.8606432,78.146801 1.9069883,77.843024 1.1125716,78.394371 0.31792214,78.945435 -0.47700784,79.496242 -1.5071757,78.98564 -2.5375463,78.474803 -3.5682432,77.963672 c -1.2721617,0.829109 -2.5445109,1.657903 -3.8172027,2.486483 -0.7652508,0.592664 -1.5307355,1.185039 -2.2964987,1.777161"
         sodipodi:nodetypes="cccccccccccc" />
      <path
         style="fill:none;fill-opacity:1;stroke:#000000;stroke-width:0.765;stroke-linecap:butt;stroke-linejoin:miter;stroke-miterlimit:4;stroke-dasharray:none;stroke-opacity:1"
         d="m 7.7242565,73.101467 c 0.7971267,0.950342 2.0170222,2.591034 2.5704295,3.785841 0.553407,1.194806 0.440585,1.943775 0.76542,2.947225 0.324835,1.00345 1.087076,2.261226 1.742137,3.28924 0.65506,1.028015 1.202883,1.826217 1.433354,2.420144 0.230471,0.593927 0.143835,0.983652 0.218347,1.487219 0.07451,0.503568 0.309998,1.120819 0.155619,1.982636 -0.15438,0.861816 -0.698432,1.968348 -1.465556,2.948519 -0.767124,0.980171 -1.757344,1.834051 -2.593915,2.285794 -0.8365712,0.451744 -1.5196723,0.501333 -2.2560977,0.941437 -0.7364254,0.440103 -1.5258786,1.270662 -4.4277058,-0.537028 -2.90182723,-1.807689 -7.9160933,-6.253707 -11.1385945,-9.747979 -3.222501,-3.494272 -4.652975,-6.036672 -3.751313,-7.988083 0.901663,-1.951411 4.1354052,-3.311359 7.3911482,-4.093671 3.25574307,-0.782311 6.5331712,-0.986989 8.35917,-0.959262 1.8259988,0.02773 2.2004306,0.287625 2.9975573,1.237968 z"
         id="path111869"
         inkscape:path-effect="#path-effect111873"
         inkscape:original-d="m 7.3012659,72.410818 c 1.22016,1.640959 2.440056,3.281651 3.6596871,4.922078 -0.112561,0.749263 -0.225382,1.498232 -0.338473,2.24695 0.762537,1.258091 1.524778,2.515867 2.28677,3.773403 0.548111,0.798499 1.095933,1.596702 1.643501,2.394656 -0.08638,0.390006 -0.173011,0.779732 -0.259913,1.169202 0.23576,0.617543 0.471247,1.234794 0.706474,1.851795 -0.543811,1.106842 -1.087863,2.213374 -1.632193,3.319666 -0.989994,0.854175 -1.980213,1.708055 -2.970715,2.561688 -0.6828631,0.04985 -1.3659641,0.09944 -2.0493431,0.14877 -0.789221,0.830857 -1.578674,1.661416 -2.36841,2.491729 -5.01420401,-4.445934 -10.02847,-8.891952 -15.043105,-13.338326 -1.4302659,-2.542235 -2.8607389,-5.084635 -4.2915049,-7.62735 3.234137,-1.359738 6.4678799,-2.719686 9.7014239,-4.079928 3.27782499,-0.204419 6.555253,-0.409098 9.832483,-0.614045 0.374711,0.260176 0.749144,0.520073 1.123318,0.779712 z" />
    </g>
    <g
       id="g70858"
       transform="translate(40.605986,63.624452)">
      <path
         sodipodi:type="star"
         style="fill:#f7e2dc;fill-opacity:1;stroke:#000000;stroke-width:4.0252;stroke-linecap:square;stroke-linejoin:round;stroke-miterlimit:4;stroke-dasharray:none;stroke-opacity:1;stop-color:#000000"
         id="path70854"
         inkscape:flatsided="false"
         sodipodi:sides="12"
         sodipodi:cx="-369.54327"
         sodipodi:cy="-118.96218"
         sodipodi:r1="37.517254"
         sodipodi:r2="31.476976"
         sodipodi:arg1="1.0471976"
         sodipodi:arg2="1.308997"
         inkscape:rounded="0.43"
         inkscape:randomized="0"
         d="m -350.78465,-86.471285 c -4.02739,2.325216 -6.11981,-3.290092 -10.61178,-2.086471 -4.49198,1.20362 -3.49641,7.112829 -8.14685,7.112829 -4.65043,0 -3.65486,-5.909209 -8.14684,-7.11283 -4.49197,-1.203621 -6.58439,4.411687 -10.61178,2.08647 -4.0274,-2.325217 -0.21061,-6.944959 -3.49896,-10.233312 -3.28835,-3.288353 -7.90809,0.528436 -10.23331,-3.498961 -2.32522,-4.02739 3.29009,-6.11981 2.08647,-10.61178 -1.20362,-4.49198 -7.11283,-3.49641 -7.11283,-8.14684 0,-4.65044 5.90921,-3.65487 7.11283,-8.14684 1.20362,-4.49198 -4.41168,-6.5844 -2.08647,-10.61179 2.32522,-4.02739 6.94496,-0.2106 10.23331,-3.49896 3.28836,-3.28835 -0.52843,-7.90809 3.49896,-10.23331 4.02739,-2.32521 6.11981,3.29009 10.61179,2.08647 4.49197,-1.20362 3.49641,-7.11283 8.14684,-7.11282 4.65043,0 3.65487,5.9092 8.14684,7.11282 4.49197,1.20363 6.58439,-4.41168 10.61178,-2.08647 4.0274,2.32522 0.21061,6.94496 3.49896,10.23332 3.28835,3.28835 7.9081,-0.52844 10.23331,3.49895 2.32522,4.0274 -3.29009,6.11982 -2.08647,10.61179 1.20362,4.49197 7.11283,3.49641 7.11283,8.14684 0,4.65043 -5.90921,3.65487 -7.11283,8.14684 -1.20362,4.49197 4.41169,6.58439 2.08647,10.61179 -2.32522,4.02739 -6.94496,0.210601 -10.23331,3.498954 -3.28835,3.288352 0.52843,7.908095 -3.49896,10.233311 z"
         transform="matrix(0.26458333,0,0,0.26458333,175.87113,94.28917)"
         inkscape:transform-center-x="-1.2318109e-06" />
      <path
         style="color:#000000;fill:#e2667b;fill-rule:evenodd;stroke-linecap:round;-inkscape-stroke:none"
         d="m -369.02734,-138.22852 c -2.93098,0.25686 -5.84922,1.12117 -8.58399,2.66993 -9.29147,5.26194 -13.40556,17.44052 -7.81054,26.95312 4.62604,7.86518 15.12254,11.328475 23.20507,6.31836 6.43704,-3.99012 9.25326,-12.82354 4.80078,-19.46875 -3.35471,-5.00683 -10.56798,-7.18191 -15.75781,-3.23047 -1.78882,1.36198 -3.00767,3.35929 -3.41797,5.55664 -0.41029,2.19736 0.0923,4.71195 1.89063,6.54688 1.0801,1.10208 2.49637,1.74507 4.0957,1.84961 1.59934,0.10453 4.37527,-0.5181 4.4961,-2.55664 0.24292,-4.09836 -3.71498,-1.00437 -5.7168,-2.10938 -0.81869,-0.83535 -1.02574,-1.82925 -0.8086,-2.99219 0.21715,-1.16293 0.96261,-2.37778 1.9004,-3.09179 3.13955,-2.3904 7.8035,-0.97274 9.9746,2.26757 3.0739,4.58772 1.04345,10.94383 -3.57812,13.8086 -6.02457,3.73444 -14.07784,1.07479 -17.61523,-4.93945 -4.38508,-7.45547 -1.08798,-17.21138 6.32617,-21.41016 8.88296,-5.0306 20.34582,-1.09221 25.19922,7.72656 1.44546,2.62645 2.29107,5.58627 2.47265,8.58789 0.0665,1.10937 -0.42979,5.38825 0.67959,5.32203 1.37348,-5.40125 1.87597,-12.67873 -1.50076,-17.49491 -4.42331,-8.03729 -11.45817,-11.084 -20.25109,-10.31345 z"
         id="path70856"
         transform="matrix(0.26458333,0,0,0.26458333,175.65149,94.179798)"
         sodipodi:nodetypes="sssssssssscssssssscccs" />
    </g>
    <g
       id="g102420"
       transform="rotate(-3.5090164,2385.0979,-3179.7608)">
      <path
         style="fill:#ffffff;fill-opacity:1;stroke:#000000;stroke-width:0.765;stroke-linecap:butt;stroke-linejoin:miter;stroke-miterlimit:4;stroke-dasharray:none;stroke-opacity:1"
         d="m -103.51067,25.375048 c 0,0 -11.20936,5.689995 -15.3914,-7.482213 -2.68551,-8.4585422 4.00133,-22.5809427 9.13576,-22.5548187 3.34112,0.017 6.25564,30.0370317 6.25564,30.0370317 z"
         id="path99319"
         sodipodi:nodetypes="cssc" />
      <path
         style="fill:#ffa827;fill-opacity:1;stroke:none;stroke-width:2.89134;stroke-linecap:round;stroke-linejoin:round;stroke-miterlimit:4;stroke-dasharray:none;stroke-opacity:1;stop-color:#000000"
         id="path99621"
         sodipodi:type="arc"
         sodipodi:cx="-108.66888"
         sodipodi:cy="16.883204"
         sodipodi:rx="7.407691"
         sodipodi:ry="7.407691"
         sodipodi:start="0"
         sodipodi:end="6.2745808"
         sodipodi:open="true"
         sodipodi:arc-type="arc"
         d="m -101.26119,16.883204 a 7.407691,7.407691 0 0 1 -7.39175,7.407673 7.407691,7.407691 0 0 1 -7.42356,-7.375804 7.407691,7.407691 0 0 1 7.35982,-7.4394062 7.407691,7.407691 0 0 1 7.45522,7.3437982" />
    </g>
    <g
       id="g112099"
       transform="rotate(6.5982881,-673.08262,1485.1846)">
      <path
         style="fill:#a54216;fill-opacity:1;stroke:#000000;stroke-width:0.765;stroke-linecap:butt;stroke-linejoin:miter;stroke-miterlimit:4;stroke-dasharray:none;stroke-opacity:1"
         d="m 7.7242565,73.101467 c 0.7971267,0.950342 2.0170222,2.591034 2.5704295,3.785841 0.553407,1.194806 0.440585,1.943775 0.76542,2.947225 0.324835,1.00345 1.087076,2.261226 1.742137,3.28924 0.65506,1.028015 1.202883,1.826217 1.433354,2.420144 0.230471,0.593927 0.143835,0.983652 0.218347,1.487219 0.07451,0.503568 0.309998,1.120819 0.155619,1.982636 -0.15438,0.861816 -0.698432,1.968348 -1.465556,2.948519 -0.767124,0.980171 -1.757344,1.834051 -2.593915,2.285794 -0.8365712,0.451744 -1.5196723,0.501333 -2.2560977,0.941437 -0.7364254,0.440103 -1.5258786,1.270662 -4.4277058,-0.537028 -2.90182723,-1.807689 -7.9160933,-6.253707 -11.1385945,-9.747979 -3.222501,-3.494272 -4.652975,-6.036672 -3.751313,-7.988083 0.901663,-1.951411 4.1354052,-3.311359 7.3911482,-4.093671 3.25574307,-0.782311 6.5331712,-0.986989 8.35917,-0.959262 1.8259988,0.02773 2.2004306,0.287625 2.9975573,1.237968 z"
         id="path112089"
         inkscape:path-effect="#path-effect112103"
         inkscape:original-d="m 7.3012659,72.410818 c 1.22016,1.640959 2.440056,3.281651 3.6596871,4.922078 -0.112561,0.749263 -0.225382,1.498232 -0.338473,2.24695 0.762537,1.258091 1.524778,2.515867 2.28677,3.773403 0.548111,0.798499 1.095933,1.596702 1.643501,2.394656 -0.08638,0.390006 -0.173011,0.779732 -0.259913,1.169202 0.23576,0.617543 0.471247,1.234794 0.706474,1.851795 -0.543811,1.106842 -1.087863,2.213374 -1.632193,3.319666 -0.989994,0.854175 -1.980213,1.708055 -2.970715,2.561688 -0.6828631,0.04985 -1.3659641,0.09944 -2.0493431,0.14877 -0.789221,0.830857 -1.578674,1.661416 -2.36841,2.491729 -5.01420401,-4.445934 -10.02847,-8.891952 -15.043105,-13.338326 -1.4302659,-2.542235 -2.8607389,-5.084635 -4.2915049,-7.62735 3.234137,-1.359738 6.4678799,-2.719686 9.7014239,-4.079928 3.27782499,-0.204419 6.555253,-0.409098 9.832483,-0.614045 0.374711,0.260176 0.749144,0.520073 1.123318,0.779712 z" />
      <path
         style="fill:#e7b39b;fill-opacity:1;stroke:none;stroke-width:0.765;stroke-linecap:butt;stroke-linejoin:miter;stroke-miterlimit:4;stroke-dasharray:none;stroke-opacity:1"
         d="m 5.5485459,73.871071 c 0.4668429,0.699424 1.4003038,2.097935 1.9537752,3.292795 0.5534713,1.19486 0.7270548,2.185955 1.012128,3.244432 0.2850733,1.058477 0.6815412,2.184187 0.8363903,2.941888 0.1548492,0.757702 0.068215,1.147419 0.1427263,1.650991 0.074511,0.503571 0.3099931,1.120811 0.9145943,1.873617 0.604602,0.752805 1.578095,1.641153 1.180784,2.494437 -0.397311,0.853284 -2.1652256,1.671712 -3.4591747,2.271627 -1.293949,0.599916 -2.1137845,0.98125 -2.8501298,1.421354 -0.7363454,0.440104 -1.3890363,0.938901 -3.7657017,-0.569508 -2.37666531,-1.508409 -6.4773444,-5.024184 -9.2430447,-8.053322 -2.7657001,-3.029139 -4.1961741,-5.571539 -3.2945121,-7.52295 0.901663,-1.951411 4.1354052,-3.311359 6.5882559,-3.982765 2.4528508,-0.671406 4.12450225,-0.6543 5.5805952,-0.499846 1.456093,0.154454 2.6964217,0.446171 3.3164464,0.591997 0.6200246,0.145826 0.6200246,0.145829 1.0868674,0.845253 z"
         id="path112091"
         inkscape:path-effect="#path-effect112107"
         inkscape:original-d="m 5.0817031,73.171647 c 0.9337465,1.398807 1.8672074,2.797318 2.8004424,4.195622 0.1738586,0.99142 0.3474422,1.982515 0.5207717,2.973406 0.3967575,1.126046 0.7932256,2.251756 1.1894545,3.377274 -0.086375,0.390007 -0.1730089,0.779725 -0.259913,1.169202 0.2357609,0.617543 0.4712426,1.234783 0.7064743,1.851795 0.973817,0.888666 1.947311,1.777013 2.920598,2.665149 C 11.19178,90.222834 9.423866,91.041262 7.6555876,91.859471 6.8359684,92.241092 6.0161328,92.622426 5.195984,93.003519 4.5435191,93.50261 3.8908285,94.001408 3.2378345,94.49997 -0.8627462,90.984317 -4.9634254,87.468542 -9.0644541,83.952429 c -1.4302659,-2.542235 -2.8607389,-5.084635 -4.2915049,-7.62735 3.234137,-1.359738 6.4678799,-2.719686 9.7014239,-4.079928 1.6720201,0.01737 3.34367155,0.03448 5.0151658,0.05132 1.2406494,0.291995 2.480978,0.583713 3.7210724,0.875173 z"
         sodipodi:nodetypes="cccccccccccccccc" />
      <path
         style="fill:#cc9074;fill-opacity:1;stroke:none;stroke-width:0.264583px;stroke-linecap:butt;stroke-linejoin:miter;stroke-opacity:1"
         d="m -2.3253379,88.91059 c 0.8263776,-0.34402 2.35458702,-1.08022 4.0517768,-1.477307 1.6971897,-0.397086 3.5631404,-0.455102 4.78321,-0.910245 1.2200697,-0.455143 1.7944939,-1.307445 2.1530929,-1.947259 0.358599,-0.639813 0.5013693,-1.067205 0.2649807,-1.637949 -0.2363886,-0.570743 -0.852212,-1.284923 -1.6261827,-1.523595 -0.7739707,-0.238672 -1.7059805,-0.0015 -2.8756032,0.627068 -1.1696228,0.62857 -2.576645,1.648481 -3.96812447,2.135734 -1.39147947,0.487253 -2.76755763,0.441787 -4.03140893,0.539134 -1.2638513,0.09735 -2.4153287,0.337552 -2.9333108,0.52206 -0.517982,0.184508 -0.4025004,0.312987 0.2206976,0.956967 0.6231981,0.64398 1.7540519,1.803419 2.381897,2.407247 0.627845,0.603829 0.7525975,0.652165 1.5789751,0.308145 z"
         id="path112093"
         inkscape:path-effect="#path-effect112111"
         inkscape:original-d="M -3.0272812,89.302824 C -1.4988071,88.566888 0.02940244,87.830688 1.5573474,87.094223 3.4236371,87.03647 5.2895878,86.978455 7.1553111,86.920172 7.7300229,86.0681 8.3044471,85.215798 8.8786183,84.363215 9.0216589,83.936072 9.1644292,83.50868 9.306938,83.081012 8.6913544,82.367069 8.0755312,81.652889 7.4594309,80.93843 6.5276486,81.175875 5.5956387,81.413045 4.663346,81.649955 3.2565313,82.670173 1.8495085,83.690083 0.44219291,84.70975 -0.93367578,84.664546 -2.309754,84.61908 -3.6861244,84.573347 c -1.1512595,0.24048 -2.3027373,0.480682 -3.4545029,0.720627 0.1157518,0.128752 0.2312342,0.257231 0.3464544,0.38545 1.1311641,1.159751 2.2620181,2.31919 3.3926303,3.478388 0.125021,0.0486 0.2497723,0.09694 0.3742614,0.145012 z" />
      <path
         style="fill:#cc9074;fill-opacity:1;stroke:none;stroke-width:0.264583px;stroke-linecap:butt;stroke-linejoin:miter;stroke-opacity:1"
         d="m -11.267954,79.209161 c 1.2960531,-0.474012 2.5919588,-0.94797 4.7158848,-1.596579 2.1239261,-0.648608 5.0757261,-1.471839 7.03437913,-1.582772 1.95865307,-0.110934 2.92392887,0.490181 3.56817367,0.499655 0.6442447,0.0095 0.9677848,-0.572573 1.277189,-0.495622 0.3094042,0.07695 0.604476,0.812654 0.5086388,1.375622 -0.095837,0.562967 -0.5824734,0.953512 -1.3023589,0.997094 -0.7198856,0.04358 -1.6732567,-0.259923 -2.5474234,-0.136207 -0.8741667,0.123717 -1.66881729,0.67478 -2.58123443,0.69498 -0.91241717,0.0202 -1.94278807,-0.490636 -3.09434377,-0.331747 -1.1515557,0.158889 -2.4239049,0.987683 -3.4428899,1.698312 -1.0189849,0.710628 -1.7844694,1.303004 -2.5500056,1.895419"
         id="path112095"
         inkscape:path-effect="#path-effect112115"
         inkscape:original-d="m -11.267954,79.209161 c 1.2961694,-0.473694 2.5920748,-0.947653 3.8877155,-1.421874 2.952183,-0.822999 5.9039832,-1.646229 8.8555778,-2.469742 0.9655789,0.601403 1.9308544,1.202518 2.8958848,1.803379 0.3238182,-0.581809 0.6473586,-1.163857 0.9706411,-1.746182 0.2953483,0.735997 0.5904203,1.4717 0.8852336,2.207155 -0.4863914,0.390826 -0.9730282,0.78137 -1.4599393,1.171659 C 3.8140147,78.450304 2.8606432,78.146801 1.9069883,77.843024 1.1125716,78.394371 0.31792214,78.945435 -0.47700784,79.496242 -1.5071757,78.98564 -2.5375463,78.474803 -3.5682432,77.963672 c -1.2721617,0.829109 -2.5445109,1.657903 -3.8172027,2.486483 -0.7652508,0.592664 -1.5307355,1.185039 -2.2964987,1.777161"
         sodipodi:nodetypes="cccccccccccc" />
      <path
         style="fill:none;fill-opacity:1;stroke:#000000;stroke-width:0.765;stroke-linecap:butt;stroke-linejoin:miter;stroke-miterlimit:4;stroke-dasharray:none;stroke-opacity:1"
         d="m 7.7242565,73.101467 c 0.7971267,0.950342 2.0170222,2.591034 2.5704295,3.785841 0.553407,1.194806 0.440585,1.943775 0.76542,2.947225 0.324835,1.00345 1.087076,2.261226 1.742137,3.28924 0.65506,1.028015 1.202883,1.826217 1.433354,2.420144 0.230471,0.593927 0.143835,0.983652 0.218347,1.487219 0.07451,0.503568 0.309998,1.120819 0.155619,1.982636 -0.15438,0.861816 -0.698432,1.968348 -1.465556,2.948519 -0.767124,0.980171 -1.757344,1.834051 -2.593915,2.285794 -0.8365712,0.451744 -1.5196723,0.501333 -2.2560977,0.941437 -0.7364254,0.440103 -1.5258786,1.270662 -4.4277058,-0.537028 -2.90182723,-1.807689 -7.9160933,-6.253707 -11.1385945,-9.747979 -3.222501,-3.494272 -4.652975,-6.036672 -3.751313,-7.988083 0.901663,-1.951411 4.1354052,-3.311359 7.3911482,-4.093671 3.25574307,-0.782311 6.5331712,-0.986989 8.35917,-0.959262 1.8259988,0.02773 2.2004306,0.287625 2.9975573,1.237968 z"
         id="path112097"
         inkscape:path-effect="#path-effect112119"
         inkscape:original-d="m 7.3012659,72.410818 c 1.22016,1.640959 2.440056,3.281651 3.6596871,4.922078 -0.112561,0.749263 -0.225382,1.498232 -0.338473,2.24695 0.762537,1.258091 1.524778,2.515867 2.28677,3.773403 0.548111,0.798499 1.095933,1.596702 1.643501,2.394656 -0.08638,0.390006 -0.173011,0.779732 -0.259913,1.169202 0.23576,0.617543 0.471247,1.234794 0.706474,1.851795 -0.543811,1.106842 -1.087863,2.213374 -1.632193,3.319666 -0.989994,0.854175 -1.980213,1.708055 -2.970715,2.561688 -0.6828631,0.04985 -1.3659641,0.09944 -2.0493431,0.14877 -0.789221,0.830857 -1.578674,1.661416 -2.36841,2.491729 -5.01420401,-4.445934 -10.02847,-8.891952 -15.043105,-13.338326 -1.4302659,-2.542235 -2.8607389,-5.084635 -4.2915049,-7.62735 3.234137,-1.359738 6.4678799,-2.719686 9.7014239,-4.079928 3.27782499,-0.204419 6.555253,-0.409098 9.832483,-0.614045 0.374711,0.260176 0.749144,0.520073 1.123318,0.779712 z" />
    </g>
    <g
       id="g112131"
       transform="rotate(6.5982881,-736.79307,1446.7366)">
      <path
         style="fill:#a54216;fill-opacity:1;stroke:#000000;stroke-width:0.765;stroke-linecap:butt;stroke-linejoin:miter;stroke-miterlimit:4;stroke-dasharray:none;stroke-opacity:1"
         d="m 7.7242565,73.101467 c 0.7971267,0.950342 2.0170222,2.591034 2.5704295,3.785841 0.553407,1.194806 0.440585,1.943775 0.76542,2.947225 0.324835,1.00345 1.087076,2.261226 1.742137,3.28924 0.65506,1.028015 1.202883,1.826217 1.433354,2.420144 0.230471,0.593927 0.143835,0.983652 0.218347,1.487219 0.07451,0.503568 0.309998,1.120819 0.155619,1.982636 -0.15438,0.861816 -0.698432,1.968348 -1.465556,2.948519 -0.767124,0.980171 -1.757344,1.834051 -2.593915,2.285794 -0.8365712,0.451744 -1.5196723,0.501333 -2.2560977,0.941437 -0.7364254,0.440103 -1.5258786,1.270662 -4.4277058,-0.537028 -2.90182723,-1.807689 -7.9160933,-6.253707 -11.1385945,-9.747979 -3.222501,-3.494272 -4.652975,-6.036672 -3.751313,-7.988083 0.901663,-1.951411 4.1354052,-3.311359 7.3911482,-4.093671 3.25574307,-0.782311 6.5331712,-0.986989 8.35917,-0.959262 1.8259988,0.02773 2.2004306,0.287625 2.9975573,1.237968 z"
         id="path112121"
         inkscape:path-effect="#path-effect112135"
         inkscape:original-d="m 7.3012659,72.410818 c 1.22016,1.640959 2.440056,3.281651 3.6596871,4.922078 -0.112561,0.749263 -0.225382,1.498232 -0.338473,2.24695 0.762537,1.258091 1.524778,2.515867 2.28677,3.773403 0.548111,0.798499 1.095933,1.596702 1.643501,2.394656 -0.08638,0.390006 -0.173011,0.779732 -0.259913,1.169202 0.23576,0.617543 0.471247,1.234794 0.706474,1.851795 -0.543811,1.106842 -1.087863,2.213374 -1.632193,3.319666 -0.989994,0.854175 -1.980213,1.708055 -2.970715,2.561688 -0.6828631,0.04985 -1.3659641,0.09944 -2.0493431,0.14877 -0.789221,0.830857 -1.578674,1.661416 -2.36841,2.491729 -5.01420401,-4.445934 -10.02847,-8.891952 -15.043105,-13.338326 -1.4302659,-2.542235 -2.8607389,-5.084635 -4.2915049,-7.62735 3.234137,-1.359738 6.4678799,-2.719686 9.7014239,-4.079928 3.27782499,-0.204419 6.555253,-0.409098 9.832483,-0.614045 0.374711,0.260176 0.749144,0.520073 1.123318,0.779712 z" />
      <path
         style="fill:#e7b39b;fill-opacity:1;stroke:none;stroke-width:0.765;stroke-linecap:butt;stroke-linejoin:miter;stroke-miterlimit:4;stroke-dasharray:none;stroke-opacity:1"
         d="m 5.5485459,73.871071 c 0.4668429,0.699424 1.4003038,2.097935 1.9537752,3.292795 0.5534713,1.19486 0.7270548,2.185955 1.012128,3.244432 0.2850733,1.058477 0.6815412,2.184187 0.8363903,2.941888 0.1548492,0.757702 0.068215,1.147419 0.1427263,1.650991 0.074511,0.503571 0.3099931,1.120811 0.9145943,1.873617 0.604602,0.752805 1.578095,1.641153 1.180784,2.494437 -0.397311,0.853284 -2.1652256,1.671712 -3.4591747,2.271627 -1.293949,0.599916 -2.1137845,0.98125 -2.8501298,1.421354 -0.7363454,0.440104 -1.3890363,0.938901 -3.7657017,-0.569508 -2.37666531,-1.508409 -6.4773444,-5.024184 -9.2430447,-8.053322 -2.7657001,-3.029139 -4.1961741,-5.571539 -3.2945121,-7.52295 0.901663,-1.951411 4.1354052,-3.311359 6.5882559,-3.982765 2.4528508,-0.671406 4.12450225,-0.6543 5.5805952,-0.499846 1.456093,0.154454 2.6964217,0.446171 3.3164464,0.591997 0.6200246,0.145826 0.6200246,0.145829 1.0868674,0.845253 z"
         id="path112123"
         inkscape:path-effect="#path-effect112139"
         inkscape:original-d="m 5.0817031,73.171647 c 0.9337465,1.398807 1.8672074,2.797318 2.8004424,4.195622 0.1738586,0.99142 0.3474422,1.982515 0.5207717,2.973406 0.3967575,1.126046 0.7932256,2.251756 1.1894545,3.377274 -0.086375,0.390007 -0.1730089,0.779725 -0.259913,1.169202 0.2357609,0.617543 0.4712426,1.234783 0.7064743,1.851795 0.973817,0.888666 1.947311,1.777013 2.920598,2.665149 C 11.19178,90.222834 9.423866,91.041262 7.6555876,91.859471 6.8359684,92.241092 6.0161328,92.622426 5.195984,93.003519 4.5435191,93.50261 3.8908285,94.001408 3.2378345,94.49997 -0.8627462,90.984317 -4.9634254,87.468542 -9.0644541,83.952429 c -1.4302659,-2.542235 -2.8607389,-5.084635 -4.2915049,-7.62735 3.234137,-1.359738 6.4678799,-2.719686 9.7014239,-4.079928 1.6720201,0.01737 3.34367155,0.03448 5.0151658,0.05132 1.2406494,0.291995 2.480978,0.583713 3.7210724,0.875173 z"
         sodipodi:nodetypes="cccccccccccccccc" />
      <path
         style="fill:#cc9074;fill-opacity:1;stroke:none;stroke-width:0.264583px;stroke-linecap:butt;stroke-linejoin:miter;stroke-opacity:1"
         d="m -2.3253379,88.91059 c 0.8263776,-0.34402 2.35458702,-1.08022 4.0517768,-1.477307 1.6971897,-0.397086 3.5631404,-0.455102 4.78321,-0.910245 1.2200697,-0.455143 1.7944939,-1.307445 2.1530929,-1.947259 0.358599,-0.639813 0.5013693,-1.067205 0.2649807,-1.637949 -0.2363886,-0.570743 -0.852212,-1.284923 -1.6261827,-1.523595 -0.7739707,-0.238672 -1.7059805,-0.0015 -2.8756032,0.627068 -1.1696228,0.62857 -2.576645,1.648481 -3.96812447,2.135734 -1.39147947,0.487253 -2.76755763,0.441787 -4.03140893,0.539134 -1.2638513,0.09735 -2.4153287,0.337552 -2.9333108,0.52206 -0.517982,0.184508 -0.4025004,0.312987 0.2206976,0.956967 0.6231981,0.64398 1.7540519,1.803419 2.381897,2.407247 0.627845,0.603829 0.7525975,0.652165 1.5789751,0.308145 z"
         id="path112125"
         inkscape:path-effect="#path-effect112143"
         inkscape:original-d="M -3.0272812,89.302824 C -1.4988071,88.566888 0.02940244,87.830688 1.5573474,87.094223 3.4236371,87.03647 5.2895878,86.978455 7.1553111,86.920172 7.7300229,86.0681 8.3044471,85.215798 8.8786183,84.363215 9.0216589,83.936072 9.1644292,83.50868 9.306938,83.081012 8.6913544,82.367069 8.0755312,81.652889 7.4594309,80.93843 6.5276486,81.175875 5.5956387,81.413045 4.663346,81.649955 3.2565313,82.670173 1.8495085,83.690083 0.44219291,84.70975 -0.93367578,84.664546 -2.309754,84.61908 -3.6861244,84.573347 c -1.1512595,0.24048 -2.3027373,0.480682 -3.4545029,0.720627 0.1157518,0.128752 0.2312342,0.257231 0.3464544,0.38545 1.1311641,1.159751 2.2620181,2.31919 3.3926303,3.478388 0.125021,0.0486 0.2497723,0.09694 0.3742614,0.145012 z" />
      <path
         style="fill:#cc9074;fill-opacity:1;stroke:none;stroke-width:0.264583px;stroke-linecap:butt;stroke-linejoin:miter;stroke-opacity:1"
         d="m -11.267954,79.209161 c 1.2960531,-0.474012 2.5919588,-0.94797 4.7158848,-1.596579 2.1239261,-0.648608 5.0757261,-1.471839 7.03437913,-1.582772 1.95865307,-0.110934 2.92392887,0.490181 3.56817367,0.499655 0.6442447,0.0095 0.9677848,-0.572573 1.277189,-0.495622 0.3094042,0.07695 0.604476,0.812654 0.5086388,1.375622 -0.095837,0.562967 -0.5824734,0.953512 -1.3023589,0.997094 -0.7198856,0.04358 -1.6732567,-0.259923 -2.5474234,-0.136207 -0.8741667,0.123717 -1.66881729,0.67478 -2.58123443,0.69498 -0.91241717,0.0202 -1.94278807,-0.490636 -3.09434377,-0.331747 -1.1515557,0.158889 -2.4239049,0.987683 -3.4428899,1.698312 -1.0189849,0.710628 -1.7844694,1.303004 -2.5500056,1.895419"
         id="path112127"
         inkscape:path-effect="#path-effect112147"
         inkscape:original-d="m -11.267954,79.209161 c 1.2961694,-0.473694 2.5920748,-0.947653 3.8877155,-1.421874 2.952183,-0.822999 5.9039832,-1.646229 8.8555778,-2.469742 0.9655789,0.601403 1.9308544,1.202518 2.8958848,1.803379 0.3238182,-0.581809 0.6473586,-1.163857 0.9706411,-1.746182 0.2953483,0.735997 0.5904203,1.4717 0.8852336,2.207155 -0.4863914,0.390826 -0.9730282,0.78137 -1.4599393,1.171659 C 3.8140147,78.450304 2.8606432,78.146801 1.9069883,77.843024 1.1125716,78.394371 0.31792214,78.945435 -0.47700784,79.496242 -1.5071757,78.98564 -2.5375463,78.474803 -3.5682432,77.963672 c -1.2721617,0.829109 -2.5445109,1.657903 -3.8172027,2.486483 -0.7652508,0.592664 -1.5307355,1.185039 -2.2964987,1.777161"
         sodipodi:nodetypes="cccccccccccc" />
      <path
         style="fill:none;fill-opacity:1;stroke:#000000;stroke-width:0.765;stroke-linecap:butt;stroke-linejoin:miter;stroke-miterlimit:4;stroke-dasharray:none;stroke-opacity:1"
         d="m 7.7242565,73.101467 c 0.7971267,0.950342 2.0170222,2.591034 2.5704295,3.785841 0.553407,1.194806 0.440585,1.943775 0.76542,2.947225 0.324835,1.00345 1.087076,2.261226 1.742137,3.28924 0.65506,1.028015 1.202883,1.826217 1.433354,2.420144 0.230471,0.593927 0.143835,0.983652 0.218347,1.487219 0.07451,0.503568 0.309998,1.120819 0.155619,1.982636 -0.15438,0.861816 -0.698432,1.968348 -1.465556,2.948519 -0.767124,0.980171 -1.757344,1.834051 -2.593915,2.285794 -0.8365712,0.451744 -1.5196723,0.501333 -2.2560977,0.941437 -0.7364254,0.440103 -1.5258786,1.270662 -4.4277058,-0.537028 -2.90182723,-1.807689 -7.9160933,-6.253707 -11.1385945,-9.747979 -3.222501,-3.494272 -4.652975,-6.036672 -3.751313,-7.988083 0.901663,-1.951411 4.1354052,-3.311359 7.3911482,-4.093671 3.25574307,-0.782311 6.5331712,-0.986989 8.35917,-0.959262 1.8259988,0.02773 2.2004306,0.287625 2.9975573,1.237968 z"
         id="path112129"
         inkscape:path-effect="#path-effect112151"
         inkscape:original-d="m 7.3012659,72.410818 c 1.22016,1.640959 2.440056,3.281651 3.6596871,4.922078 -0.112561,0.749263 -0.225382,1.498232 -0.338473,2.24695 0.762537,1.258091 1.524778,2.515867 2.28677,3.773403 0.548111,0.798499 1.095933,1.596702 1.643501,2.394656 -0.08638,0.390006 -0.173011,0.779732 -0.259913,1.169202 0.23576,0.617543 0.471247,1.234794 0.706474,1.851795 -0.543811,1.106842 -1.087863,2.213374 -1.632193,3.319666 -0.989994,0.854175 -1.980213,1.708055 -2.970715,2.561688 -0.6828631,0.04985 -1.3659641,0.09944 -2.0493431,0.14877 -0.789221,0.830857 -1.578674,1.661416 -2.36841,2.491729 -5.01420401,-4.445934 -10.02847,-8.891952 -15.043105,-13.338326 -1.4302659,-2.542235 -2.8607389,-5.084635 -4.2915049,-7.62735 3.234137,-1.359738 6.4678799,-2.719686 9.7014239,-4.079928 3.27782499,-0.204419 6.555253,-0.409098 9.832483,-0.614045 0.374711,0.260176 0.749144,0.520073 1.123318,0.779712 z" />
    </g>
    <g
       id="g31641"
       transform="matrix(0.72541179,0,0,0.72541179,151.32776,126.48105)">
      <rect
         style="fill:#a2a2a2;fill-opacity:1;stroke:#000000;stroke-width:1.241;stroke-linecap:round;stroke-linejoin:round;stroke-miterlimit:4;stroke-dasharray:none;stroke-opacity:1;stop-color:#000000"
         id="rect20083"
         width="100.40064"
         height="73.268936"
         x="-86.023033"
         y="8.3868017"
         ry="4.7665062" />
      <rect
         style="fill:#1a1a1a;fill-opacity:1;stroke:#000000;stroke-width:1.241;stroke-linecap:round;stroke-linejoin:round;stroke-miterlimit:4;stroke-dasharray:none;stroke-opacity:1;stop-color:#000000"
         id="rect30561"
         width="92.43132"
         height="65.90863"
         x="-82.025856"
         y="12.066954"
         ry="4.2876821" />
    </g>
    <text
       xml:space="preserve"
       style="font-size:15.3827px;line-height:1.25;font-family:sans-serif;fill:#ffffff;fill-opacity:1;stroke:#ffffff;stroke-width:1.024;stroke-miterlimit:4;stroke-dasharray:none;stroke-opacity:1"
       x="103.82639"
       y="151.37932"
       id="text34203"><tspan
         sodipodi:role="line"
         id="tspan34201"
         style="font-style:normal;font-variant:normal;font-weight:bold;font-stretch:normal;font-size:15.3827px;font-family:Purisa;-inkscape-font-specification:'Purisa Bold';fill:#ffffff;fill-opacity:1;stroke:#ffffff;stroke-width:1.024;stroke-miterlimit:4;stroke-dasharray:none;stroke-opacity:1"
         x="103.82639"
         y="151.37932">miam</tspan></text>
    <g
       id="g60091"
       transform="translate(61.294011,95.496604)">
      <rect
         style="fill:#fe0032;fill-opacity:1;stroke:none;stroke-width:1.024;stroke-linecap:square;stroke-linejoin:round;stroke-miterlimit:4;stroke-dasharray:none;stroke-opacity:1;stop-color:#000000"
         id="rect55801"
         width="27.784544"
         height="18.5942"
         x="50.501808"
         y="59.857231"
         ry="4.4758401" />
      <path
         style="fill:#ffffff;fill-opacity:1;stroke:#000000;stroke-width:0.264583px;stroke-linecap:butt;stroke-linejoin:miter;stroke-opacity:1"
         d="m 61.64857,64.661149 v 8.49985 l 7.605934,-4.28967 z"
         id="path59935" />
    </g>
    <path
       style="fill:#ffffff;fill-opacity:1;stroke:#000000;stroke-width:3.065;stroke-linecap:square;stroke-linejoin:round;stroke-miterlimit:4;stroke-dasharray:none;stroke-opacity:1"
       d="m 106.66672,229.73995 c -1.54233,-5.13072 -3.9324,-7.52971 -4.60253,-15.47085 0.13594,-6.54468 1.60171,-11.78631 3.28134,-16.27046 1.67962,-4.48415 3.8899,-8.62354 8.61365,-10.9522 0.79982,-0.39429 2.49526,-0.19342 3.14309,0.26384 l -3.2759,14.38214 6.41428,-28.66387 c 1.71844,-6.02408 8.65325,-2.74958 7.8958,2.83475 l -0.0118,10.02998 c 6.0451,3.80735 11.64618,5.46505 18.13529,11.42206 2.89431,3.31651 7.58766,10.11137 7.73796,14.10026 -0.20514,6.77641 -3.11726,11.92131 -4.67589,17.88197"
       id="path31676"
       sodipodi:nodetypes="cczscccccccc" />
  </g>
</svg>
