<?xml version="1.0" encoding="UTF-8" standalone="no"?>
<!-- Created with Inkscape (http://www.inkscape.org/) -->

<svg
   width="126.89819mm"
   height="68.953629mm"
   viewBox="0 0 126.89819 68.953629"
   version="1.1"
   id="svg5"
   inkscape:version="1.1.2 (0a00cf5339, 2022-02-04)"
   sodipodi:docname="eyeOpened.svg"
   xmlns:inkscape="http://www.inkscape.org/namespaces/inkscape"
   xmlns:sodipodi="http://sodipodi.sourceforge.net/DTD/sodipodi-0.dtd"
   xmlns="http://www.w3.org/2000/svg"
   xmlns:svg="http://www.w3.org/2000/svg">
  <sodipodi:namedview
     id="namedview7"
     pagecolor="#ffffff"
     bordercolor="#666666"
     borderopacity="1.0"
     inkscape:pageshadow="2"
     inkscape:pageopacity="0.0"
     inkscape:pagecheckerboard="0"
     inkscape:document-units="mm"
     showgrid="false"
     fit-margin-top="0"
     fit-margin-left="0"
     fit-margin-right="0"
     fit-margin-bottom="0"
     inkscape:zoom="0.90509668"
     inkscape:cx="213.23689"
     inkscape:cy="129.26796"
     inkscape:window-width="1366"
     inkscape:window-height="717"
     inkscape:window-x="0"
     inkscape:window-y="0"
     inkscape:window-maximized="1"
     inkscape:current-layer="layer1" />
  <defs
     id="defs2" />
  <g
     inkscape:label="Layer 1"
     inkscape:groupmode="layer"
     id="layer1"
     transform="translate(-45.552775,-62.888242)">
    <path
       id="path869"
       style="opacity:1;fill:#000000;fill-opacity:1;stroke:none;stroke-width:0.194938px;stroke-linecap:butt;stroke-linejoin:miter;stroke-opacity:1"
       d="M 108.38374,71.964485 C 91.762175,72.070065 74.817425,79.96064 62.254179,97.364338 84.589683,129.40174 130.1608,132.97024 155.74957,97.501024 144.50682,81.124348 126.64022,71.84852 108.38374,71.964485 Z m 0.61261,3.21001 A 22.390664,22.390664 0 0 1 131.38723,97.565368 22.390664,22.390664 0 0 1 108.99635,119.95586 22.390664,22.390664 0 0 1 86.605858,97.565368 22.390664,22.390664 0 0 1 108.99635,75.174495 Z" />
    <path
       id="path1590"
       style="opacity:0.996;fill:#000000;fill-opacity:1;stroke:none;stroke-width:0.784665;stroke-linecap:round;stroke-linejoin:round;stop-color:#000000"
       d="m 109.63155,84.954254 a 12.582681,12.582681 0 0 0 -3.55877,0.538369 l 0.22883,8.933276 -6.578792,-4.536123 a 12.582681,12.582681 0 0 0 -2.592832,7.701204 12.582681,12.582681 0 0 0 12.609694,12.52859 12.582681,12.582681 0 0 0 12.55563,-12.582654 l -3.9e-4,-0.108129 A 12.582681,12.582681 0 0 0 109.63155,84.954254 Z" />
    <rect
       style="fill:none;stroke:#000000;stroke-width:3.965;stroke-linecap:round;stroke-linejoin:round;stroke-miterlimit:4;stroke-dasharray:none;stroke-opacity:1;stop-color:#000000"
       id="rect850"
       width="124.12665"
       height="65.696144"
       x="47.750908"
       y="64.328857"
       ry="21.382069" />
  </g>
</svg>
