<?xml version="1.0" encoding="UTF-8" standalone="no"?>
<svg
   enable-background="new 0 0 67 63"
   height="63px"
   id="Layer_1"
   version="1.1"
   viewBox="0 0 67 63"
   width="67px"
   xml:space="preserve"
   sodipodi:docname="filledStar.svg"
   inkscape:version="1.1.2 (0a00cf5339, 2022-02-04)"
   xmlns:inkscape="http://www.inkscape.org/namespaces/inkscape"
   xmlns:sodipodi="http://sodipodi.sourceforge.net/DTD/sodipodi-0.dtd"
   xmlns="http://www.w3.org/2000/svg"
   xmlns:svg="http://www.w3.org/2000/svg"><defs
     id="defs7" /><sodipodi:namedview
     id="namedview5"
     pagecolor="#ffffff"
     bordercolor="#666666"
     borderopacity="1.0"
     inkscape:pageshadow="2"
     inkscape:pageopacity="0.0"
     inkscape:pagecheckerboard="0"
     showgrid="false"
     inkscape:zoom="6.4126984"
     inkscape:cx="36.022277"
     inkscape:cy="47.951733"
     inkscape:window-width="1366"
     inkscape:window-height="744"
     inkscape:window-x="167"
     inkscape:window-y="1050"
     inkscape:window-maximized="1"
     inkscape:current-layer="Layer_1" /><path
     style="fill:#f2ea29;fill-opacity:1"
     d="M 33,-0.475 22.719,20.355 -0.27,23.696 16.365,39.91 12.438,62.806 33,51.996 53.562,62.807 49.635,39.91 66.27,23.696 43.28,20.355 33,-0.475 Z"
     id="path2124" /><path
     style="fill:#f2ea29;fill-opacity:1"
     d="m 33,10.822 5.797,11.746 1.163,2.357 2.602,0.378 12.963,1.884 -9.38,9.143 -1.882,1.835 0.444,2.591 2.214,12.91 L 35.327,47.57 33,46.348 l -2.327,1.223 -11.594,6.096 2.214,-12.91 0.444,-2.591 -1.882,-1.835 -9.38,-9.143 12.962,-1.884 2.602,-0.378 1.163,-2.357 L 33,10.822"
     id="path2" /></svg>
