<?xml version="1.0" encoding="UTF-8" standalone="no"?>
<!-- Created with Inkscape (http://www.inkscape.org/) -->

<svg
   width="77.262123mm"
   height="77.021454mm"
   viewBox="0 0 77.262124 77.021453"
   version="1.1"
   id="svg5"
   inkscape:version="1.1.2 (0a00cf5339, 2022-02-04)"
   sodipodi:docname="list.svg"
   xmlns:inkscape="http://www.inkscape.org/namespaces/inkscape"
   xmlns:sodipodi="http://sodipodi.sourceforge.net/DTD/sodipodi-0.dtd"
   xmlns="http://www.w3.org/2000/svg"
   xmlns:svg="http://www.w3.org/2000/svg">
  <sodipodi:namedview
     id="namedview7"
     pagecolor="#ffffff"
     bordercolor="#666666"
     borderopacity="1.0"
     inkscape:pageshadow="2"
     inkscape:pageopacity="0.0"
     inkscape:pagecheckerboard="0"
     inkscape:document-units="mm"
     showgrid="false"
     fit-margin-top="13"
     fit-margin-left="10"
     fit-margin-right="10"
     fit-margin-bottom="13"
     inkscape:zoom="2.1115193"
     inkscape:cx="219.2734"
     inkscape:cy="167.17821"
     inkscape:window-width="1920"
     inkscape:window-height="1029"
     inkscape:window-x="1366"
     inkscape:window-y="0"
     inkscape:window-maximized="1"
     inkscape:current-layer="layer1" />
  <defs
     id="defs2" />
  <g
     inkscape:label="Layer 1"
     inkscape:groupmode="layer"
     id="layer1"
     transform="translate(-21.821478,-51.053711)">
    <path
       style="fill:#ffffff;fill-opacity:1;stroke:none;stroke-width:8.18268;stroke-linecap:round;stroke-linejoin:round;stop-color:#000000"
       id="path846"
       sodipodi:type="arc"
       sodipodi:cx="40.92564"
       sodipodi:cy="68.042679"
       sodipodi:rx="3.9889674"
       sodipodi:ry="3.9889674"
       sodipodi:start="0"
       sodipodi:end="6.2745808"
       sodipodi:open="true"
       sodipodi:arc-type="arc"
       d="m 44.914608,68.042679 a 3.9889674,3.9889674 0 0 1 -3.980387,3.988958 3.9889674,3.9889674 0 0 1 -3.997511,-3.971797 3.9889674,3.9889674 0 0 1 3.963188,-4.006046 3.9889674,3.9889674 0 0 1 4.014562,3.954562" />
    <path
       style="fill:none;stroke:#ffffff;stroke-width:4.165;stroke-linecap:round;stroke-linejoin:miter;stroke-miterlimit:4;stroke-dasharray:none;stroke-opacity:1"
       d="M 53.78241,68.099745 H 87.001103"
       id="path881"
       sodipodi:nodetypes="cc" />
    <path
       style="fill:#ffffff;fill-opacity:1;stroke:none;stroke-width:8.18268;stroke-linecap:round;stroke-linejoin:round;stop-color:#000000"
       id="path1175"
       sodipodi:type="arc"
       sodipodi:cx="40.92564"
       sodipodi:cy="83.110039"
       sodipodi:rx="3.9889674"
       sodipodi:ry="3.9889674"
       sodipodi:start="0"
       sodipodi:end="6.2745808"
       sodipodi:open="true"
       sodipodi:arc-type="arc"
       d="M 44.914608,83.110039 A 3.9889674,3.9889674 0 0 1 40.934221,87.098997 3.9889674,3.9889674 0 0 1 36.93671,83.1272 3.9889674,3.9889674 0 0 1 40.899898,79.121154 3.9889674,3.9889674 0 0 1 44.91446,83.075716" />
    <path
       style="fill:none;stroke:#ffffff;stroke-width:4.165;stroke-linecap:round;stroke-linejoin:miter;stroke-miterlimit:4;stroke-dasharray:none;stroke-opacity:1"
       d="M 53.78241,83.167102 H 87.001103"
       id="path1177"
       sodipodi:nodetypes="cc" />
    <path
       style="fill:#ffffff;fill-opacity:1;stroke:none;stroke-width:8.18268;stroke-linecap:round;stroke-linejoin:round;stop-color:#000000"
       id="path1179"
       sodipodi:type="arc"
       sodipodi:cx="40.92564"
       sodipodi:cy="97.31369"
       sodipodi:rx="3.9889674"
       sodipodi:ry="3.9889674"
       sodipodi:start="0"
       sodipodi:end="6.2745808"
       sodipodi:open="true"
       sodipodi:arc-type="arc"
       d="m 44.914608,97.31369 a 3.9889674,3.9889674 0 0 1 -3.980387,3.98896 3.9889674,3.9889674 0 0 1 -3.997511,-3.971798 3.9889674,3.9889674 0 0 1 3.963188,-4.006046 3.9889674,3.9889674 0 0 1 4.014562,3.954562" />
    <path
       style="fill:none;stroke:#ffffff;stroke-width:4.165;stroke-linecap:round;stroke-linejoin:miter;stroke-miterlimit:4;stroke-dasharray:none;stroke-opacity:1"
       d="M 53.78241,97.370756 H 87.001103"
       id="path1181"
       sodipodi:nodetypes="cc" />
    <path
       style="fill:#ffffff;fill-opacity:1;stroke:none;stroke-width:8.18268;stroke-linecap:round;stroke-linejoin:round;stop-color:#000000"
       id="path1183"
       sodipodi:type="arc"
       sodipodi:cx="40.92564"
       sodipodi:cy="111.0862"
       sodipodi:rx="3.9889674"
       sodipodi:ry="3.9889674"
       sodipodi:start="0"
       sodipodi:end="6.2745808"
       sodipodi:open="true"
       sodipodi:arc-type="arc"
       d="m 44.914608,111.0862 a 3.9889674,3.9889674 0 0 1 -3.980387,3.98896 3.9889674,3.9889674 0 0 1 -3.997511,-3.9718 3.9889674,3.9889674 0 0 1 3.963188,-4.00605 3.9889674,3.9889674 0 0 1 4.014562,3.95456" />
    <path
       style="fill:none;stroke:#ffffff;stroke-width:4.165;stroke-linecap:round;stroke-linejoin:miter;stroke-miterlimit:4;stroke-dasharray:none;stroke-opacity:1"
       d="M 53.78241,111.14326 H 87.001103"
       id="path1185"
       sodipodi:nodetypes="cc" />
    <path
       style="fill:none;stroke:#ffffff;stroke-width:0.264583px;stroke-linecap:butt;stroke-linejoin:miter;stroke-opacity:1"
       d="M 31.953769,66.809848 V 112.91192"
       id="path1395" />
  </g>
</svg>
