<?xml version="1.0" encoding="UTF-8" standalone="no"?>
<!-- Created with Inkscape (http://www.inkscape.org/) -->

<svg
   width="5.7710571mm"
   height="6.0980453mm"
   viewBox="0 0 5.7710571 6.0980453"
   version="1.1"
   id="svg976"
   sodipodi:docname="seen-unchecked.svg"
   inkscape:version="1.1.2 (0a00cf5339, 2022-02-04)"
   xmlns:inkscape="http://www.inkscape.org/namespaces/inkscape"
   xmlns:sodipodi="http://sodipodi.sourceforge.net/DTD/sodipodi-0.dtd"
   xmlns="http://www.w3.org/2000/svg"
   xmlns:svg="http://www.w3.org/2000/svg">
  <sodipodi:namedview
     id="namedview978"
     pagecolor="#ffffff"
     bordercolor="#666666"
     borderopacity="1.0"
     inkscape:pageshadow="2"
     inkscape:pageopacity="0.0"
     inkscape:pagecheckerboard="0"
     inkscape:document-units="mm"
     showgrid="false"
     inkscape:snap-global="false"
     fit-margin-top="0"
     fit-margin-left="0"
     fit-margin-right="0"
     fit-margin-bottom="0"
     inkscape:zoom="32.574845"
     inkscape:cx="11.266362"
     inkscape:cy="11.112869"
     inkscape:window-width="1680"
     inkscape:window-height="999"
     inkscape:window-x="0"
     inkscape:window-y="0"
     inkscape:window-maximized="1"
     inkscape:current-layer="layer1" />
  <defs
     id="defs973" />
  <g
     inkscape:label="Layer 1"
     inkscape:groupmode="layer"
     id="layer1"
     transform="translate(-73.202343,-132.13944)">
    <path
       style="fill:#ffffff;stroke:#000000;stroke-width:0.234;stroke-linecap:round;stroke-linejoin:round;stroke-miterlimit:4;stroke-dasharray:none;stop-color:#000000"
       id="path849"
       sodipodi:type="arc"
       sodipodi:cx="75.715782"
       sodipodi:cy="136.5119"
       sodipodi:rx="1.396486"
       sodipodi:ry="1.396486"
       sodipodi:start="0"
       sodipodi:end="6.2745808"
       sodipodi:open="true"
       sodipodi:arc-type="arc"
       d="m 77.112268,136.5119 a 1.396486,1.396486 0 0 1 -1.393482,1.39648 1.396486,1.396486 0 0 1 -1.399477,-1.39047 1.396486,1.396486 0 0 1 1.387461,-1.40247 1.396486,1.396486 0 0 1 1.405447,1.38445" />
    <g
       id="g17600"
       transform="translate(2.1162853,2.0518385)"
       style="opacity:0.303845;fill:#143514;fill-opacity:0.996078;stroke:#0e250e;stroke-width:0.234;stroke-miterlimit:4;stroke-dasharray:none;stroke-opacity:0.996078">
      <path
         style="color:#000000;fill:#143514;fill-opacity:0.996078;stroke:#0e250e;stroke-width:0.234;stroke-linecap:round;stroke-linejoin:round;stroke-miterlimit:4;stroke-dasharray:none;stroke-opacity:0.996078"
         d="m 76.480163,131.09017 c 0.175467,0.13684 0.207026,0.38497 0.07031,0.56054 l -3.193359,4.07813 -1.669922,-1.94336 h -0.002 c -0.145709,-0.16944 -0.125267,-0.41962 0.04492,-0.56445 0.169228,-0.14472 0.419762,-0.12628 0.564453,0.043 -4e-6,6.7e-4 -4e-6,0.001 0,0.002 l 0.914062,1.06445 c 0.06191,0.072 0.174313,0.0691 0.232422,-0.006 l 2.478516,-3.16601 c 0.137286,-0.17499 0.385363,-0.2054 0.560547,-0.0684 z"
         id="path17598"
         sodipodi:nodetypes="ccccccccccccc" />
    </g>
    <g
       id="path1049"
       transform="translate(1.9544154,1.6230306)"
       style="fill:#c7d9c7;fill-opacity:0.99607843;stroke:#6d896d;stroke-width:0.234;stroke-miterlimit:4;stroke-dasharray:none;stroke-opacity:0.99607843">
      <path
         style="color:#000000;fill:#c7d9c7;fill-opacity:0.99607843;stroke:#6d896d;stroke-width:0.234;stroke-linecap:round;stroke-linejoin:round;stroke-miterlimit:4;stroke-dasharray:none;stroke-opacity:0.99607843"
         d="m 76.480163,131.09017 c 0.175467,0.13684 0.207026,0.38497 0.07031,0.56054 l -3.193359,4.07813 -1.669922,-1.94336 h -0.002 c -0.145709,-0.16944 -0.125267,-0.41962 0.04492,-0.56445 0.169228,-0.14472 0.419762,-0.12628 0.564453,0.043 -4e-6,6.7e-4 -4e-6,0.001 0,0.002 l 0.914062,1.06445 c 0.06191,0.072 0.174313,0.0691 0.232422,-0.006 l 2.478516,-3.16601 c 0.137286,-0.17499 0.385363,-0.2054 0.560547,-0.0684 z"
         id="path2765"
         sodipodi:nodetypes="ccccccccccccc" />
    </g>
  </g>
</svg>
